<svg xmlns="http://www.w3.org/2000/svg" width="900" height="700" viewBox="0 0 900 700">
  <rect width="100%" height="100%" fill="#1a1a1a"/>
  <circle cx="782" cy="394" r="17" fill="#E87A9A" opacity="0.86"/><circle cx="200" cy="692" r="14" fill="#C4785A" opacity="0.55"/><circle cx="871" cy="462" r="3" fill="#8B7EC8" opacity="0.48"/><circle cx="243" cy="506" r="18" fill="#6B7F8C" opacity="0.86"/><circle cx="334" cy="487" r="6" fill="#E87A9A" opacity="0.58"/><circle cx="732" cy="672" r="3" fill="#8B7EC8" opacity="0.42"/><circle cx="260" cy="457" r="17" fill="#E87A9A" opacity="0.44"/><circle cx="46" cy="181" r="5" fill="#C4785A" opacity="0.52"/><circle cx="11" cy="181" r="8" fill="#6B7F8C" opacity="0.34"/><circle cx="130" cy="225" r="8" fill="#E87A9A" opacity="0.94"/><circle cx="315" cy="665" r="13" fill="#6B7F8C" opacity="0.46"/><circle cx="344" cy="471" r="9" fill="#C8E06A" opacity="0.79"/><circle cx="627" cy="199" r="14" fill="#E87A9A" opacity="0.61"/><circle cx="586" cy="354" r="13" fill="#E87A9A" opacity="0.36"/><circle cx="569" cy="357" r="13" fill="#C4785A" opacity="0.93"/><circle cx="601" cy="332" r="2" fill="#C4785A" opacity="0.92"/><circle cx="516" cy="399" r="12" fill="#C4785A" opacity="0.45"/><circle cx="755" cy="172" r="10" fill="#8B7EC8" opacity="0.72"/><circle cx="728" cy="309" r="6" fill="#8B7EC8" opacity="0.38"/><circle cx="570" cy="477" r="6" fill="#E87A9A" opacity="0.29"/><circle cx="15" cy="176" r="13" fill="#F5F2ED" opacity="0.70"/><circle cx="477" cy="618" r="6" fill="#C4785A" opacity="0.60"/><circle cx="192" cy="578" r="7" fill="#F5F2ED" opacity="0.26"/><circle cx="63" cy="667" r="4" fill="#E87A9A" opacity="0.52"/><circle cx="375" cy="199" r="18" fill="#F5F2ED" opacity="0.72"/><circle cx="88" cy="210" r="15" fill="#E87A9A" opacity="0.92"/><circle cx="553" cy="260" r="15" fill="#E87A9A" opacity="0.42"/><circle cx="666" cy="239" r="17" fill="#8B7EC8" opacity="0.37"/><circle cx="230" cy="464" r="17" fill="#8B7EC8" opacity="0.80"/><circle cx="84" cy="567" r="8" fill="#C4785A" opacity="0.28"/><circle cx="61" cy="662" r="12" fill="#8B7EC8" opacity="0.69"/><circle cx="710" cy="609" r="18" fill="#F5F2ED" opacity="0.51"/><circle cx="894" cy="402" r="17" fill="#C8E06A" opacity="0.47"/><circle cx="255" cy="195" r="5" fill="#8B7EC8" opacity="0.64"/><circle cx="752" cy="574" r="16" fill="#E87A9A" opacity="0.52"/><circle cx="568" cy="121" r="10" fill="#6B7F8C" opacity="0.69"/><circle cx="307" cy="677" r="17" fill="#8B7EC8" opacity="0.84"/><circle cx="628" cy="285" r="9" fill="#C8E06A" opacity="0.67"/><circle cx="633" cy="476" r="6" fill="#C4785A" opacity="0.93"/><circle cx="774" cy="565" r="8" fill="#E87A9A" opacity="0.49"/><circle cx="243" cy="639" r="8" fill="#6B7F8C" opacity="0.31"/><circle cx="381" cy="699" r="10" fill="#F5F2ED" opacity="0.88"/><circle cx="832" cy="202" r="11" fill="#6B7F8C" opacity="0.36"/><circle cx="453" cy="21" r="3" fill="#F5F2ED" opacity="0.49"/><circle cx="295" cy="345" r="8" fill="#6B7F8C" opacity="0.92"/><circle cx="144" cy="405" r="2" fill="#C4785A" opacity="0.28"/><circle cx="884" cy="415" r="12" fill="#6B7F8C" opacity="0.66"/><circle cx="395" cy="50" r="16" fill="#C8E06A" opacity="0.92"/><circle cx="128" cy="290" r="10" fill="#8B7EC8" opacity="0.55"/><circle cx="177" cy="192" r="10" fill="#F5F2ED" opacity="0.71"/><circle cx="422" cy="678" r="13" fill="#E87A9A" opacity="0.89"/><circle cx="759" cy="242" r="11" fill="#6B7F8C" opacity="0.85"/><circle cx="642" cy="530" r="16" fill="#F5F2ED" opacity="0.40"/><circle cx="211" cy="556" r="2" fill="#C8E06A" opacity="0.49"/><circle cx="220" cy="65" r="18" fill="#F5F2ED" opacity="0.75"/><circle cx="619" cy="241" r="12" fill="#C8E06A" opacity="0.39"/><circle cx="637" cy="295" r="7" fill="#E87A9A" opacity="0.66"/><circle cx="795" cy="390" r="13" fill="#E87A9A" opacity="0.83"/><circle cx="391" cy="604" r="10" fill="#8B7EC8" opacity="0.62"/><circle cx="79" cy="89" r="13" fill="#6B7F8C" opacity="0.75"/><circle cx="722" cy="226" r="7" fill="#F5F2ED" opacity="0.28"/><circle cx="253" cy="429" r="10" fill="#E87A9A" opacity="0.42"/><circle cx="68" cy="93" r="17" fill="#C4785A" opacity="0.81"/><circle cx="829" cy="323" r="14" fill="#C8E06A" opacity="0.61"/><circle cx="208" cy="268" r="2" fill="#F5F2ED" opacity="0.51"/><circle cx="730" cy="242" r="3" fill="#6B7F8C" opacity="0.49"/><circle cx="447" cy="535" r="8" fill="#8B7EC8" opacity="0.49"/><circle cx="158" cy="200" r="13" fill="#F5F2ED" opacity="0.86"/><circle cx="475" cy="16" r="18" fill="#6B7F8C" opacity="0.26"/><circle cx="145" cy="631" r="9" fill="#E87A9A" opacity="0.84"/><circle cx="561" cy="618" r="10" fill="#F5F2ED" opacity="0.51"/><circle cx="690" cy="496" r="10" fill="#6B7F8C" opacity="0.27"/><circle cx="374" cy="590" r="8" fill="#C8E06A" opacity="0.59"/><circle cx="61" cy="453" r="3" fill="#8B7EC8" opacity="0.94"/><circle cx="536" cy="439" r="17" fill="#E87A9A" opacity="0.36"/><circle cx="245" cy="131" r="14" fill="#C8E06A" opacity="0.34"/><circle cx="844" cy="359" r="3" fill="#8B7EC8" opacity="0.31"/><circle cx="428" cy="681" r="4" fill="#C8E06A" opacity="0.37"/><circle cx="237" cy="533" r="5" fill="#C4785A" opacity="0.85"/><circle cx="360" cy="548" r="2" fill="#C4785A" opacity="0.30"/><circle cx="260" cy="663" r="14" fill="#F5F2ED" opacity="0.94"/><circle cx="431" cy="527" r="8" fill="#8B7EC8" opacity="0.30"/><circle cx="894" cy="663" r="11" fill="#C4785A" opacity="0.26"/><circle cx="827" cy="421" r="9" fill="#E87A9A" opacity="0.42"/><circle cx="790" cy="608" r="6" fill="#C4785A" opacity="0.61"/><circle cx="419" cy="172" r="3" fill="#C8E06A" opacity="0.52"/><circle cx="566" cy="647" r="9" fill="#8B7EC8" opacity="0.50"/><circle cx="317" cy="161" r="13" fill="#F5F2ED" opacity="0.27"/><circle cx="265" cy="567" r="5" fill="#6B7F8C" opacity="0.66"/><circle cx="671" cy="606" r="14" fill="#6B7F8C" opacity="0.32"/>
  <text x="50%" y="52%" text-anchor="middle" fill="#F5F2ED" font-family="Arial Black, Helvetica, sans-serif" font-size="75" font-weight="800" opacity="0.9">FOUNDER 02</text>
</svg>