<svg xmlns="http://www.w3.org/2000/svg" width="900" height="700" viewBox="0 0 900 700">
  <rect width="100%" height="100%" fill="#1a1a1a"/>
  <circle cx="408" cy="641" r="18" fill="#1E9BD7" opacity="0.67"/><circle cx="684" cy="636" r="11" fill="#6B7F8C" opacity="0.88"/><circle cx="249" cy="533" r="7" fill="#6B7F8C" opacity="0.78"/><circle cx="566" cy="647" r="12" fill="#C4785A" opacity="0.66"/><circle cx="878" cy="179" r="12" fill="#F5F2ED" opacity="0.88"/><circle cx="224" cy="633" r="17" fill="#C4785A" opacity="0.75"/><circle cx="17" cy="72" r="17" fill="#8B7EC8" opacity="0.38"/><circle cx="350" cy="166" r="3" fill="#F5F2ED" opacity="0.27"/><circle cx="359" cy="168" r="15" fill="#6B7F8C" opacity="0.27"/><circle cx="739" cy="293" r="15" fill="#6B7F8C" opacity="0.69"/><circle cx="872" cy="110" r="12" fill="#FDB827" opacity="0.74"/><circle cx="582" cy="315" r="9" fill="#8B7EC8" opacity="0.59"/><circle cx="429" cy="317" r="7" fill="#C8E06A" opacity="0.81"/><circle cx="790" cy="388" r="10" fill="#6B7F8C" opacity="0.55"/><circle cx="110" cy="117" r="10" fill="#C4785A" opacity="0.44"/><circle cx="806" cy="271" r="12" fill="#C4785A" opacity="0.87"/><circle cx="610" cy="419" r="20" fill="#F5F2ED" opacity="0.51"/><circle cx="845" cy="146" r="13" fill="#8B7EC8" opacity="0.35"/><circle cx="366" cy="170" r="13" fill="#1E9BD7" opacity="0.36"/><circle cx="130" cy="653" r="10" fill="#FDB827" opacity="0.81"/><circle cx="666" cy="541" r="6" fill="#C4785A" opacity="0.34"/><circle cx="28" cy="577" r="16" fill="#E87A9A" opacity="0.61"/><circle cx="443" cy="522" r="14" fill="#FDB827" opacity="0.39"/><circle cx="539" cy="652" r="7" fill="#1E9BD7" opacity="0.85"/><circle cx="514" cy="403" r="6" fill="#1E9BD7" opacity="0.52"/><circle cx="94" cy="546" r="15" fill="#8B7EC8" opacity="0.65"/><circle cx="516" cy="604" r="4" fill="#E87A9A" opacity="0.76"/><circle cx="128" cy="627" r="17" fill="#FDB827" opacity="0.51"/><circle cx="693" cy="27" r="14" fill="#6B7F8C" opacity="0.37"/><circle cx="209" cy="323" r="7" fill="#F5F2ED" opacity="0.62"/><circle cx="773" cy="40" r="12" fill="#C4785A" opacity="0.87"/><circle cx="884" cy="239" r="13" fill="#8B7EC8" opacity="0.69"/><circle cx="181" cy="59" r="9" fill="#1E9BD7" opacity="0.32"/><circle cx="50" cy="527" r="17" fill="#C8E06A" opacity="0.45"/><circle cx="206" cy="192" r="6" fill="#E87A9A" opacity="0.44"/><circle cx="632" cy="580" r="10" fill="#FDB827" opacity="0.85"/><circle cx="672" cy="17" r="14" fill="#C8E06A" opacity="0.27"/><circle cx="528" cy="496" r="12" fill="#C4785A" opacity="0.45"/><circle cx="507" cy="311" r="13" fill="#8B7EC8" opacity="0.62"/><circle cx="617" cy="183" r="8" fill="#F5F2ED" opacity="0.89"/><circle cx="324" cy="433" r="13" fill="#1E9BD7" opacity="0.26"/><circle cx="497" cy="597" r="4" fill="#C4785A" opacity="0.68"/><circle cx="178" cy="545" r="16" fill="#1E9BD7" opacity="0.36"/><circle cx="213" cy="633" r="14" fill="#C8E06A" opacity="0.33"/><circle cx="829" cy="396" r="17" fill="#F5F2ED" opacity="0.88"/><circle cx="310" cy="102" r="14" fill="#F5F2ED" opacity="0.46"/><circle cx="891" cy="200" r="14" fill="#8B7EC8" opacity="0.67"/><circle cx="285" cy="162" r="4" fill="#1E9BD7" opacity="0.44"/><circle cx="260" cy="208" r="15" fill="#1E9BD7" opacity="0.29"/><circle cx="126" cy="404" r="13" fill="#FDB827" opacity="0.44"/><circle cx="637" cy="186" r="4" fill="#C4785A" opacity="0.36"/><circle cx="769" cy="520" r="4" fill="#8B7EC8" opacity="0.62"/><circle cx="770" cy="188" r="8" fill="#FDB827" opacity="0.52"/><circle cx="748" cy="515" r="9" fill="#E87A9A" opacity="0.56"/><circle cx="476" cy="312" r="14" fill="#1E9BD7" opacity="0.65"/><circle cx="67" cy="154" r="12" fill="#8B7EC8" opacity="0.72"/><circle cx="598" cy="261" r="5" fill="#1E9BD7" opacity="0.73"/><circle cx="893" cy="216" r="7" fill="#FDB827" opacity="0.78"/><circle cx="31" cy="222" r="12" fill="#C4785A" opacity="0.67"/><circle cx="344" cy="585" r="4" fill="#6B7F8C" opacity="0.69"/><circle cx="240" cy="381" r="5" fill="#8B7EC8" opacity="0.67"/><circle cx="147" cy="153" r="3" fill="#1E9BD7" opacity="0.78"/><circle cx="140" cy="401" r="11" fill="#C8E06A" opacity="0.85"/><circle cx="642" cy="393" r="7" fill="#E87A9A" opacity="0.38"/><circle cx="28" cy="481" r="3" fill="#C4785A" opacity="0.50"/><circle cx="165" cy="10" r="9" fill="#1E9BD7" opacity="0.33"/><circle cx="57" cy="94" r="9" fill="#FDB827" opacity="0.70"/><circle cx="196" cy="691" r="12" fill="#F5F2ED" opacity="0.30"/><circle cx="171" cy="584" r="8" fill="#1E9BD7" opacity="0.80"/><circle cx="293" cy="422" r="12" fill="#E87A9A" opacity="0.87"/><circle cx="563" cy="655" r="7" fill="#C8E06A" opacity="0.58"/><circle cx="893" cy="35" r="10" fill="#1E9BD7" opacity="0.34"/><circle cx="829" cy="604" r="20" fill="#C4785A" opacity="0.45"/><circle cx="247" cy="360" r="3" fill="#C4785A" opacity="0.68"/><circle cx="444" cy="320" r="7" fill="#F5F2ED" opacity="0.42"/><circle cx="512" cy="429" r="12" fill="#C4785A" opacity="0.83"/><circle cx="473" cy="421" r="17" fill="#E87A9A" opacity="0.85"/><circle cx="878" cy="179" r="17" fill="#1E9BD7" opacity="0.72"/><circle cx="719" cy="350" r="13" fill="#6B7F8C" opacity="0.45"/><circle cx="510" cy="223" r="9" fill="#FDB827" opacity="0.62"/>
  <circle cx="450" cy="280" r="110" fill="#F5821F" opacity="0.9"/>
  <text x="450" y="295" text-anchor="middle" fill="#0F0F0F" font-family="Arial Black, Helvetica, sans-serif" font-size="64" font-weight="800">JC</text>
  <text x="450" y="460" text-anchor="middle" fill="#F5F2ED" font-family="Arial Black, Helvetica, sans-serif" font-size="36" font-weight="800">JACQUES CIAMBRA</text>
  <text x="450" y="510" text-anchor="middle" fill="#F5821F" font-family="Helvetica, Arial, sans-serif" font-size="16" letter-spacing="3">HEADSHOT PLACEHOLDER</text>
</svg>