<svg xmlns="http://www.w3.org/2000/svg" width="900" height="700" viewBox="0 0 900 700">
  <rect width="100%" height="100%" fill="#1a1a1a"/>
  <circle cx="570" cy="551" r="20" fill="#FDB827" opacity="0.56"/><circle cx="193" cy="38" r="15" fill="#FDB827" opacity="0.38"/><circle cx="793" cy="404" r="13" fill="#6B7F8C" opacity="0.68"/><circle cx="559" cy="29" r="10" fill="#C8E06A" opacity="0.58"/><circle cx="55" cy="695" r="20" fill="#6B7F8C" opacity="0.81"/><circle cx="777" cy="386" r="18" fill="#8B7EC8" opacity="0.60"/><circle cx="848" cy="449" r="15" fill="#8B7EC8" opacity="0.72"/><circle cx="90" cy="63" r="12" fill="#E87A9A" opacity="0.52"/><circle cx="784" cy="246" r="12" fill="#FDB827" opacity="0.66"/><circle cx="254" cy="140" r="3" fill="#E87A9A" opacity="0.26"/><circle cx="875" cy="484" r="15" fill="#6B7F8C" opacity="0.59"/><circle cx="736" cy="488" r="8" fill="#8B7EC8" opacity="0.29"/><circle cx="228" cy="626" r="7" fill="#E87A9A" opacity="0.42"/><circle cx="195" cy="627" r="20" fill="#C8E06A" opacity="0.85"/><circle cx="694" cy="551" r="8" fill="#8B7EC8" opacity="0.28"/><circle cx="771" cy="59" r="18" fill="#C4785A" opacity="0.48"/><circle cx="884" cy="420" r="12" fill="#C8E06A" opacity="0.46"/><circle cx="726" cy="279" r="15" fill="#1E9BD7" opacity="0.29"/><circle cx="155" cy="280" r="15" fill="#8B7EC8" opacity="0.55"/><circle cx="138" cy="466" r="9" fill="#1E9BD7" opacity="0.76"/><circle cx="371" cy="558" r="10" fill="#F5F2ED" opacity="0.87"/><circle cx="130" cy="483" r="4" fill="#FDB827" opacity="0.41"/><circle cx="887" cy="553" r="14" fill="#1E9BD7" opacity="0.40"/><circle cx="384" cy="63" r="17" fill="#6B7F8C" opacity="0.70"/><circle cx="675" cy="433" r="6" fill="#6B7F8C" opacity="0.77"/><circle cx="57" cy="633" r="16" fill="#8B7EC8" opacity="0.61"/><circle cx="13" cy="238" r="16" fill="#1E9BD7" opacity="0.61"/><circle cx="202" cy="361" r="19" fill="#C8E06A" opacity="0.82"/><circle cx="707" cy="469" r="18" fill="#6B7F8C" opacity="0.37"/><circle cx="499" cy="584" r="12" fill="#F5F2ED" opacity="0.73"/><circle cx="49" cy="687" r="14" fill="#6B7F8C" opacity="0.25"/><circle cx="725" cy="0" r="12" fill="#F5F2ED" opacity="0.89"/><circle cx="12" cy="184" r="12" fill="#FDB827" opacity="0.80"/><circle cx="896" cy="442" r="5" fill="#C8E06A" opacity="0.73"/><circle cx="751" cy="492" r="14" fill="#FDB827" opacity="0.36"/><circle cx="402" cy="490" r="19" fill="#8B7EC8" opacity="0.84"/><circle cx="245" cy="567" r="16" fill="#F5F2ED" opacity="0.34"/><circle cx="317" cy="353" r="6" fill="#F5F2ED" opacity="0.86"/><circle cx="401" cy="286" r="17" fill="#6B7F8C" opacity="0.79"/><circle cx="751" cy="289" r="13" fill="#E87A9A" opacity="0.31"/><circle cx="239" cy="260" r="11" fill="#6B7F8C" opacity="0.28"/><circle cx="651" cy="693" r="14" fill="#6B7F8C" opacity="0.86"/><circle cx="417" cy="195" r="16" fill="#E87A9A" opacity="0.52"/><circle cx="182" cy="63" r="14" fill="#C8E06A" opacity="0.66"/><circle cx="95" cy="516" r="6" fill="#8B7EC8" opacity="0.66"/><circle cx="77" cy="319" r="8" fill="#F5F2ED" opacity="0.41"/><circle cx="7" cy="548" r="18" fill="#8B7EC8" opacity="0.63"/><circle cx="859" cy="144" r="18" fill="#C8E06A" opacity="0.83"/><circle cx="319" cy="90" r="5" fill="#FDB827" opacity="0.38"/><circle cx="318" cy="462" r="14" fill="#1E9BD7" opacity="0.64"/><circle cx="561" cy="589" r="12" fill="#C4785A" opacity="0.45"/><circle cx="698" cy="630" r="9" fill="#E87A9A" opacity="0.67"/><circle cx="891" cy="176" r="17" fill="#F5F2ED" opacity="0.75"/><circle cx="177" cy="129" r="19" fill="#6B7F8C" opacity="0.42"/><circle cx="710" cy="353" r="11" fill="#1E9BD7" opacity="0.71"/><circle cx="193" cy="398" r="13" fill="#C8E06A" opacity="0.58"/><circle cx="587" cy="61" r="12" fill="#1E9BD7" opacity="0.47"/><circle cx="431" cy="622" r="19" fill="#1E9BD7" opacity="0.44"/><circle cx="765" cy="190" r="6" fill="#F5F2ED" opacity="0.49"/><circle cx="454" cy="186" r="16" fill="#1E9BD7" opacity="0.33"/><circle cx="593" cy="234" r="17" fill="#1E9BD7" opacity="0.66"/><circle cx="556" cy="245" r="6" fill="#C4785A" opacity="0.59"/><circle cx="867" cy="599" r="7" fill="#E87A9A" opacity="0.78"/><circle cx="495" cy="331" r="10" fill="#FDB827" opacity="0.42"/><circle cx="41" cy="583" r="17" fill="#F5F2ED" opacity="0.49"/><circle cx="341" cy="346" r="15" fill="#1E9BD7" opacity="0.44"/><circle cx="221" cy="410" r="11" fill="#E87A9A" opacity="0.64"/><circle cx="700" cy="565" r="18" fill="#1E9BD7" opacity="0.74"/><circle cx="690" cy="439" r="9" fill="#C8E06A" opacity="0.47"/><circle cx="699" cy="560" r="10" fill="#6B7F8C" opacity="0.45"/><circle cx="475" cy="291" r="12" fill="#6B7F8C" opacity="0.86"/><circle cx="274" cy="654" r="13" fill="#1E9BD7" opacity="0.54"/><circle cx="46" cy="157" r="10" fill="#F5F2ED" opacity="0.64"/><circle cx="638" cy="467" r="14" fill="#F5F2ED" opacity="0.77"/><circle cx="177" cy="327" r="15" fill="#C8E06A" opacity="0.31"/><circle cx="735" cy="100" r="11" fill="#FDB827" opacity="0.63"/><circle cx="823" cy="199" r="11" fill="#FDB827" opacity="0.82"/><circle cx="349" cy="521" r="18" fill="#FDB827" opacity="0.69"/><circle cx="647" cy="85" r="4" fill="#1E9BD7" opacity="0.41"/><circle cx="622" cy="339" r="17" fill="#F5F2ED" opacity="0.34"/>
  <circle cx="450" cy="280" r="110" fill="#1E9BD7" opacity="0.9"/>
  <text x="450" y="295" text-anchor="middle" fill="#0F0F0F" font-family="Arial Black, Helvetica, sans-serif" font-size="64" font-weight="800">TM</text>
  <text x="450" y="460" text-anchor="middle" fill="#F5F2ED" font-family="Arial Black, Helvetica, sans-serif" font-size="36" font-weight="800">THOMAS MCVAY</text>
  <text x="450" y="510" text-anchor="middle" fill="#1E9BD7" font-family="Helvetica, Arial, sans-serif" font-size="16" letter-spacing="3">HEADSHOT PLACEHOLDER</text>
</svg>