<svg xmlns="http://www.w3.org/2000/svg" width="900" height="700" viewBox="0 0 900 700">
  <rect width="100%" height="100%" fill="#1a1a1a"/>
  <circle cx="68" cy="333" r="15" fill="#C4785A" opacity="0.80"/><circle cx="334" cy="698" r="17" fill="#8B7EC8" opacity="0.78"/><circle cx="461" cy="493" r="17" fill="#6B7F8C" opacity="0.90"/><circle cx="488" cy="63" r="9" fill="#6B7F8C" opacity="0.88"/><circle cx="193" cy="14" r="11" fill="#C4785A" opacity="0.42"/><circle cx="273" cy="185" r="17" fill="#F5F2ED" opacity="0.75"/><circle cx="589" cy="79" r="15" fill="#8B7EC8" opacity="0.63"/><circle cx="779" cy="571" r="11" fill="#E87A9A" opacity="0.32"/><circle cx="597" cy="319" r="13" fill="#8B7EC8" opacity="0.87"/><circle cx="192" cy="30" r="15" fill="#E87A9A" opacity="0.75"/><circle cx="428" cy="276" r="2" fill="#6B7F8C" opacity="0.54"/><circle cx="863" cy="254" r="18" fill="#C4785A" opacity="0.43"/><circle cx="605" cy="643" r="12" fill="#C4785A" opacity="0.74"/><circle cx="350" cy="196" r="11" fill="#8B7EC8" opacity="0.27"/><circle cx="184" cy="501" r="15" fill="#8B7EC8" opacity="0.45"/><circle cx="851" cy="536" r="2" fill="#C4785A" opacity="0.51"/><circle cx="894" cy="523" r="7" fill="#C4785A" opacity="0.92"/><circle cx="38" cy="548" r="13" fill="#E87A9A" opacity="0.57"/><circle cx="33" cy="224" r="17" fill="#E87A9A" opacity="0.66"/><circle cx="527" cy="363" r="13" fill="#E87A9A" opacity="0.88"/><circle cx="175" cy="58" r="7" fill="#E87A9A" opacity="0.82"/><circle cx="115" cy="218" r="12" fill="#C4785A" opacity="0.87"/><circle cx="444" cy="20" r="2" fill="#F5F2ED" opacity="0.85"/><circle cx="348" cy="210" r="11" fill="#8B7EC8" opacity="0.73"/><circle cx="50" cy="434" r="6" fill="#6B7F8C" opacity="0.53"/><circle cx="467" cy="243" r="15" fill="#6B7F8C" opacity="0.72"/><circle cx="614" cy="658" r="9" fill="#6B7F8C" opacity="0.37"/><circle cx="612" cy="41" r="18" fill="#8B7EC8" opacity="0.30"/><circle cx="147" cy="557" r="14" fill="#6B7F8C" opacity="0.46"/><circle cx="804" cy="655" r="18" fill="#C8E06A" opacity="0.35"/><circle cx="44" cy="522" r="2" fill="#8B7EC8" opacity="0.32"/><circle cx="867" cy="294" r="10" fill="#6B7F8C" opacity="0.73"/><circle cx="562" cy="676" r="13" fill="#E87A9A" opacity="0.37"/><circle cx="439" cy="15" r="2" fill="#F5F2ED" opacity="0.54"/><circle cx="876" cy="104" r="6" fill="#F5F2ED" opacity="0.80"/><circle cx="178" cy="542" r="4" fill="#C8E06A" opacity="0.32"/><circle cx="497" cy="110" r="9" fill="#C8E06A" opacity="0.43"/><circle cx="502" cy="231" r="2" fill="#F5F2ED" opacity="0.46"/><circle cx="339" cy="598" r="9" fill="#E87A9A" opacity="0.27"/><circle cx="520" cy="193" r="10" fill="#8B7EC8" opacity="0.85"/><circle cx="305" cy="190" r="5" fill="#F5F2ED" opacity="0.52"/><circle cx="557" cy="321" r="18" fill="#C8E06A" opacity="0.85"/><circle cx="735" cy="381" r="3" fill="#8B7EC8" opacity="0.67"/><circle cx="408" cy="40" r="3" fill="#E87A9A" opacity="0.49"/><circle cx="65" cy="109" r="18" fill="#8B7EC8" opacity="0.64"/><circle cx="50" cy="154" r="6" fill="#6B7F8C" opacity="0.25"/><circle cx="691" cy="596" r="13" fill="#C4785A" opacity="0.94"/><circle cx="208" cy="252" r="4" fill="#C4785A" opacity="0.67"/><circle cx="480" cy="658" r="12" fill="#6B7F8C" opacity="0.45"/><circle cx="356" cy="496" r="16" fill="#C8E06A" opacity="0.70"/><circle cx="715" cy="257" r="14" fill="#F5F2ED" opacity="0.75"/><circle cx="720" cy="409" r="11" fill="#E87A9A" opacity="0.33"/><circle cx="608" cy="462" r="6" fill="#8B7EC8" opacity="0.86"/><circle cx="670" cy="607" r="14" fill="#E87A9A" opacity="0.74"/><circle cx="689" cy="262" r="11" fill="#C4785A" opacity="0.53"/><circle cx="366" cy="162" r="6" fill="#C8E06A" opacity="0.37"/><circle cx="381" cy="598" r="7" fill="#E87A9A" opacity="0.42"/><circle cx="589" cy="537" r="6" fill="#8B7EC8" opacity="0.36"/><circle cx="83" cy="368" r="17" fill="#F5F2ED" opacity="0.83"/><circle cx="153" cy="552" r="4" fill="#6B7F8C" opacity="0.65"/><circle cx="108" cy="180" r="17" fill="#C4785A" opacity="0.61"/><circle cx="877" cy="243" r="4" fill="#C8E06A" opacity="0.40"/><circle cx="786" cy="628" r="17" fill="#F5F2ED" opacity="0.82"/><circle cx="610" cy="409" r="11" fill="#8B7EC8" opacity="0.55"/><circle cx="278" cy="21" r="8" fill="#C8E06A" opacity="0.35"/><circle cx="637" cy="328" r="3" fill="#C4785A" opacity="0.70"/><circle cx="24" cy="76" r="17" fill="#E87A9A" opacity="0.53"/><circle cx="618" cy="639" r="5" fill="#8B7EC8" opacity="0.73"/><circle cx="876" cy="531" r="18" fill="#E87A9A" opacity="0.86"/><circle cx="253" cy="2" r="5" fill="#6B7F8C" opacity="0.86"/><circle cx="718" cy="347" r="13" fill="#C8E06A" opacity="0.30"/><circle cx="464" cy="401" r="9" fill="#C8E06A" opacity="0.60"/><circle cx="32" cy="441" r="5" fill="#C4785A" opacity="0.26"/><circle cx="8" cy="218" r="8" fill="#C8E06A" opacity="0.84"/><circle cx="188" cy="507" r="18" fill="#F5F2ED" opacity="0.76"/><circle cx="634" cy="41" r="2" fill="#F5F2ED" opacity="0.55"/><circle cx="57" cy="589" r="13" fill="#C4785A" opacity="0.36"/><circle cx="717" cy="417" r="10" fill="#6B7F8C" opacity="0.31"/><circle cx="253" cy="505" r="17" fill="#E87A9A" opacity="0.66"/><circle cx="548" cy="643" r="6" fill="#6B7F8C" opacity="0.79"/><circle cx="278" cy="531" r="17" fill="#C4785A" opacity="0.86"/><circle cx="660" cy="270" r="9" fill="#C4785A" opacity="0.69"/><circle cx="231" cy="667" r="2" fill="#6B7F8C" opacity="0.84"/><circle cx="716" cy="184" r="12" fill="#E87A9A" opacity="0.80"/><circle cx="498" cy="377" r="8" fill="#C4785A" opacity="0.82"/><circle cx="513" cy="389" r="15" fill="#E87A9A" opacity="0.94"/><circle cx="759" cy="568" r="10" fill="#6B7F8C" opacity="0.94"/><circle cx="446" cy="94" r="3" fill="#C4785A" opacity="0.89"/><circle cx="238" cy="407" r="7" fill="#C4785A" opacity="0.41"/><circle cx="134" cy="374" r="6" fill="#C4785A" opacity="0.42"/>
  <text x="50%" y="52%" text-anchor="middle" fill="#F5F2ED" font-family="Arial Black, Helvetica, sans-serif" font-size="75" font-weight="800" opacity="0.9">FOUNDER 01</text>
</svg>