<svg xmlns="http://www.w3.org/2000/svg" width="1200" height="800" viewBox="0 0 1200 800">
  <rect width="100%" height="100%" fill="#1a1a1a"/>
  <circle cx="714" cy="594" r="5" fill="#C4785A" opacity="0.47"/><circle cx="1168" cy="342" r="11" fill="#6B7F8C" opacity="0.84"/><circle cx="339" cy="769" r="6" fill="#C4785A" opacity="0.71"/><circle cx="719" cy="173" r="15" fill="#8B7EC8" opacity="0.52"/><circle cx="942" cy="508" r="9" fill="#F5F2ED" opacity="0.94"/><circle cx="636" cy="538" r="10" fill="#C4785A" opacity="0.90"/><circle cx="238" cy="366" r="7" fill="#F5F2ED" opacity="0.90"/><circle cx="1089" cy="516" r="17" fill="#8B7EC8" opacity="0.61"/><circle cx="591" cy="535" r="5" fill="#8B7EC8" opacity="0.54"/><circle cx="595" cy="723" r="10" fill="#8B7EC8" opacity="0.34"/><circle cx="226" cy="565" r="17" fill="#E87A9A" opacity="0.86"/><circle cx="1191" cy="785" r="2" fill="#8B7EC8" opacity="0.38"/><circle cx="117" cy="624" r="7" fill="#C8E06A" opacity="0.78"/><circle cx="871" cy="462" r="18" fill="#6B7F8C" opacity="0.71"/><circle cx="153" cy="713" r="4" fill="#C8E06A" opacity="0.65"/><circle cx="628" cy="274" r="9" fill="#F5F2ED" opacity="0.90"/><circle cx="847" cy="309" r="4" fill="#C4785A" opacity="0.89"/><circle cx="1007" cy="171" r="15" fill="#8B7EC8" opacity="0.49"/><circle cx="503" cy="779" r="3" fill="#C8E06A" opacity="0.87"/><circle cx="481" cy="768" r="5" fill="#C8E06A" opacity="0.38"/><circle cx="1061" cy="216" r="10" fill="#C8E06A" opacity="0.85"/><circle cx="998" cy="700" r="18" fill="#8B7EC8" opacity="0.87"/><circle cx="19" cy="615" r="7" fill="#F5F2ED" opacity="0.35"/><circle cx="430" cy="591" r="3" fill="#F5F2ED" opacity="0.77"/><circle cx="658" cy="768" r="9" fill="#F5F2ED" opacity="0.79"/><circle cx="713" cy="370" r="2" fill="#6B7F8C" opacity="0.48"/><circle cx="794" cy="347" r="5" fill="#6B7F8C" opacity="0.42"/><circle cx="175" cy="286" r="4" fill="#F5F2ED" opacity="0.83"/><circle cx="72" cy="701" r="3" fill="#8B7EC8" opacity="0.31"/><circle cx="187" cy="698" r="12" fill="#F5F2ED" opacity="0.56"/><circle cx="963" cy="670" r="17" fill="#6B7F8C" opacity="0.58"/><circle cx="52" cy="645" r="6" fill="#C8E06A" opacity="0.90"/><circle cx="361" cy="190" r="9" fill="#C4785A" opacity="0.74"/><circle cx="741" cy="215" r="14" fill="#8B7EC8" opacity="0.73"/><circle cx="853" cy="94" r="16" fill="#F5F2ED" opacity="0.78"/><circle cx="921" cy="520" r="4" fill="#E87A9A" opacity="0.29"/><circle cx="722" cy="629" r="16" fill="#8B7EC8" opacity="0.64"/><circle cx="197" cy="749" r="7" fill="#F5F2ED" opacity="0.26"/><circle cx="1074" cy="555" r="4" fill="#F5F2ED" opacity="0.27"/><circle cx="1007" cy="434" r="18" fill="#C8E06A" opacity="0.45"/><circle cx="950" cy="325" r="5" fill="#E87A9A" opacity="0.61"/><circle cx="1090" cy="268" r="8" fill="#E87A9A" opacity="0.50"/><circle cx="685" cy="25" r="12" fill="#6B7F8C" opacity="0.92"/><circle cx="524" cy="602" r="15" fill="#E87A9A" opacity="0.57"/><circle cx="857" cy="536" r="12" fill="#C8E06A" opacity="0.30"/><circle cx="30" cy="255" r="4" fill="#C8E06A" opacity="0.81"/><circle cx="869" cy="389" r="17" fill="#E87A9A" opacity="0.81"/><circle cx="888" cy="759" r="13" fill="#F5F2ED" opacity="0.66"/><circle cx="689" cy="602" r="3" fill="#C4785A" opacity="0.94"/><circle cx="26" cy="785" r="17" fill="#E87A9A" opacity="0.58"/><circle cx="919" cy="190" r="10" fill="#C8E06A" opacity="0.55"/><circle cx="210" cy="558" r="10" fill="#6B7F8C" opacity="0.92"/><circle cx="471" cy="410" r="3" fill="#8B7EC8" opacity="0.36"/><circle cx="92" cy="412" r="5" fill="#C4785A" opacity="0.88"/><circle cx="110" cy="42" r="12" fill="#E87A9A" opacity="0.58"/><circle cx="621" cy="178" r="12" fill="#6B7F8C" opacity="0.38"/><circle cx="5" cy="564" r="16" fill="#F5F2ED" opacity="0.56"/><circle cx="433" cy="660" r="12" fill="#8B7EC8" opacity="0.89"/><circle cx="1092" cy="259" r="13" fill="#F5F2ED" opacity="0.87"/><circle cx="939" cy="171" r="14" fill="#E87A9A" opacity="0.58"/><circle cx="643" cy="618" r="8" fill="#C8E06A" opacity="0.46"/><circle cx="196" cy="495" r="12" fill="#E87A9A" opacity="0.69"/><circle cx="340" cy="189" r="6" fill="#C8E06A" opacity="0.34"/><circle cx="641" cy="120" r="5" fill="#F5F2ED" opacity="0.86"/><circle cx="372" cy="564" r="14" fill="#E87A9A" opacity="0.45"/><circle cx="386" cy="718" r="3" fill="#F5F2ED" opacity="0.73"/><circle cx="681" cy="527" r="8" fill="#C4785A" opacity="0.78"/><circle cx="1054" cy="80" r="11" fill="#C8E06A" opacity="0.61"/><circle cx="253" cy="86" r="4" fill="#C8E06A" opacity="0.68"/><circle cx="92" cy="601" r="8" fill="#6B7F8C" opacity="0.59"/><circle cx="210" cy="642" r="7" fill="#8B7EC8" opacity="0.57"/><circle cx="6" cy="684" r="14" fill="#8B7EC8" opacity="0.36"/><circle cx="1026" cy="553" r="10" fill="#C4785A" opacity="0.82"/><circle cx="453" cy="196" r="6" fill="#6B7F8C" opacity="0.45"/><circle cx="41" cy="197" r="16" fill="#E87A9A" opacity="0.90"/><circle cx="888" cy="243" r="8" fill="#C8E06A" opacity="0.95"/><circle cx="1168" cy="406" r="10" fill="#C4785A" opacity="0.30"/><circle cx="874" cy="643" r="18" fill="#F5F2ED" opacity="0.62"/><circle cx="52" cy="507" r="3" fill="#C4785A" opacity="0.62"/><circle cx="235" cy="543" r="13" fill="#C4785A" opacity="0.33"/><circle cx="698" cy="155" r="6" fill="#8B7EC8" opacity="0.46"/><circle cx="1171" cy="504" r="18" fill="#6B7F8C" opacity="0.36"/><circle cx="472" cy="757" r="8" fill="#F5F2ED" opacity="0.76"/><circle cx="134" cy="672" r="18" fill="#C8E06A" opacity="0.34"/><circle cx="978" cy="717" r="7" fill="#F5F2ED" opacity="0.39"/><circle cx="804" cy="786" r="14" fill="#6B7F8C" opacity="0.54"/><circle cx="547" cy="243" r="8" fill="#C4785A" opacity="0.51"/><circle cx="27" cy="546" r="9" fill="#E87A9A" opacity="0.56"/><circle cx="1031" cy="707" r="6" fill="#6B7F8C" opacity="0.27"/><circle cx="498" cy="120" r="6" fill="#C8E06A" opacity="0.36"/>
  <text x="50%" y="52%" text-anchor="middle" fill="#F5F2ED" font-family="Arial Black, Helvetica, sans-serif" font-size="100" font-weight="800" opacity="0.9">WEEKEND</text>
</svg>