<svg xmlns="http://www.w3.org/2000/svg" width="900" height="1400" viewBox="0 0 900 1400">
  <rect width="100%" height="100%" fill="#141414"/>
  <polygon points="0,0 315.0,0 0,770.0000000000001" fill="#1E9BD7" opacity="0.35"/>
  <circle cx="151" cy="1385" r="21" fill="#F5F2ED" opacity="0.33"/><circle cx="729" cy="1353" r="21" fill="#C8E06A" opacity="0.49"/><circle cx="632" cy="878" r="20" fill="#C4785A" opacity="0.74"/><circle cx="556" cy="1269" r="18" fill="#C8E06A" opacity="0.75"/><circle cx="386" cy="904" r="9" fill="#C8E06A" opacity="0.26"/><circle cx="54" cy="376" r="21" fill="#1E9BD7" opacity="0.87"/><circle cx="857" cy="454" r="18" fill="#C8E06A" opacity="0.57"/><circle cx="421" cy="1290" r="17" fill="#6B7F8C" opacity="0.38"/><circle cx="94" cy="681" r="14" fill="#E87A9A" opacity="0.58"/><circle cx="765" cy="1234" r="15" fill="#FDB827" opacity="0.30"/><circle cx="824" cy="342" r="13" fill="#E87A9A" opacity="0.25"/><circle cx="242" cy="1293" r="11" fill="#FDB827" opacity="0.30"/><circle cx="629" cy="902" r="10" fill="#F5F2ED" opacity="0.68"/><circle cx="481" cy="1308" r="19" fill="#1E9BD7" opacity="0.85"/><circle cx="889" cy="1047" r="8" fill="#FDB827" opacity="0.38"/><circle cx="209" cy="1229" r="20" fill="#C8E06A" opacity="0.60"/><circle cx="378" cy="1080" r="3" fill="#FDB827" opacity="0.29"/><circle cx="485" cy="352" r="11" fill="#6B7F8C" opacity="0.78"/><circle cx="535" cy="787" r="10" fill="#FDB827" opacity="0.71"/><circle cx="176" cy="436" r="12" fill="#1E9BD7" opacity="0.34"/><circle cx="160" cy="452" r="18" fill="#FDB827" opacity="0.30"/><circle cx="614" cy="982" r="19" fill="#E87A9A" opacity="0.21"/><circle cx="247" cy="796" r="10" fill="#C8E06A" opacity="0.29"/><circle cx="794" cy="308" r="2" fill="#FDB827" opacity="0.41"/><circle cx="273" cy="911" r="15" fill="#E87A9A" opacity="0.52"/><circle cx="702" cy="608" r="8" fill="#C4785A" opacity="0.55"/><circle cx="826" cy="946" r="20" fill="#E87A9A" opacity="0.68"/><circle cx="232" cy="530" r="4" fill="#C8E06A" opacity="0.87"/><circle cx="731" cy="798" r="17" fill="#C8E06A" opacity="0.21"/><circle cx="282" cy="832" r="9" fill="#C8E06A" opacity="0.69"/><circle cx="718" cy="483" r="7" fill="#6B7F8C" opacity="0.68"/><circle cx="486" cy="230" r="7" fill="#8B7EC8" opacity="0.72"/><circle cx="167" cy="383" r="3" fill="#E87A9A" opacity="0.70"/><circle cx="145" cy="278" r="16" fill="#FDB827" opacity="0.56"/><circle cx="900" cy="152" r="12" fill="#C8E06A" opacity="0.55"/><circle cx="807" cy="928" r="9" fill="#C8E06A" opacity="0.74"/><circle cx="267" cy="1193" r="10" fill="#C8E06A" opacity="0.89"/><circle cx="495" cy="401" r="4" fill="#6B7F8C" opacity="0.77"/><circle cx="772" cy="414" r="16" fill="#C4785A" opacity="0.39"/><circle cx="492" cy="1139" r="20" fill="#C8E06A" opacity="0.55"/><circle cx="279" cy="203" r="7" fill="#8B7EC8" opacity="0.62"/><circle cx="81" cy="214" r="5" fill="#E87A9A" opacity="0.89"/><circle cx="795" cy="138" r="7" fill="#FDB827" opacity="0.37"/><circle cx="431" cy="275" r="12" fill="#1E9BD7" opacity="0.41"/><circle cx="267" cy="914" r="9" fill="#E87A9A" opacity="0.56"/><circle cx="210" cy="805" r="5" fill="#C4785A" opacity="0.72"/><circle cx="347" cy="711" r="17" fill="#6B7F8C" opacity="0.65"/><circle cx="788" cy="932" r="8" fill="#C4785A" opacity="0.91"/><circle cx="26" cy="231" r="11" fill="#C4785A" opacity="0.24"/><circle cx="483" cy="800" r="3" fill="#1E9BD7" opacity="0.35"/><circle cx="748" cy="777" r="22" fill="#E87A9A" opacity="0.39"/><circle cx="187" cy="566" r="8" fill="#6B7F8C" opacity="0.68"/><circle cx="290" cy="1321" r="4" fill="#6B7F8C" opacity="0.85"/><circle cx="878" cy="542" r="11" fill="#E87A9A" opacity="0.36"/><circle cx="24" cy="356" r="19" fill="#E87A9A" opacity="0.38"/><circle cx="610" cy="556" r="2" fill="#E87A9A" opacity="0.93"/><circle cx="449" cy="1220" r="14" fill="#E87A9A" opacity="0.65"/><circle cx="715" cy="349" r="14" fill="#1E9BD7" opacity="0.81"/><circle cx="10" cy="1098" r="2" fill="#FDB827" opacity="0.87"/><circle cx="515" cy="132" r="18" fill="#E87A9A" opacity="0.45"/><circle cx="99" cy="822" r="4" fill="#FDB827" opacity="0.79"/><circle cx="85" cy="1023" r="17" fill="#E87A9A" opacity="0.47"/><circle cx="877" cy="30" r="5" fill="#8B7EC8" opacity="0.21"/><circle cx="876" cy="1010" r="18" fill="#C4785A" opacity="0.74"/><circle cx="196" cy="421" r="14" fill="#E87A9A" opacity="0.92"/><circle cx="340" cy="1092" r="6" fill="#C4785A" opacity="0.26"/><circle cx="541" cy="579" r="21" fill="#C4785A" opacity="0.90"/><circle cx="390" cy="765" r="15" fill="#C4785A" opacity="0.83"/><circle cx="29" cy="977" r="13" fill="#F5F2ED" opacity="0.40"/><circle cx="678" cy="1328" r="5" fill="#E87A9A" opacity="0.40"/><circle cx="193" cy="324" r="13" fill="#C8E06A" opacity="0.49"/><circle cx="95" cy="782" r="22" fill="#F5F2ED" opacity="0.34"/><circle cx="248" cy="862" r="13" fill="#C8E06A" opacity="0.42"/><circle cx="547" cy="826" r="16" fill="#F5F2ED" opacity="0.83"/><circle cx="522" cy="16" r="12" fill="#F5F2ED" opacity="0.33"/><circle cx="123" cy="1231" r="8" fill="#E87A9A" opacity="0.89"/><circle cx="7" cy="855" r="16" fill="#C8E06A" opacity="0.59"/><circle cx="163" cy="221" r="21" fill="#C8E06A" opacity="0.64"/><circle cx="797" cy="760" r="17" fill="#C4785A" opacity="0.87"/><circle cx="609" cy="328" r="8" fill="#C8E06A" opacity="0.81"/><circle cx="425" cy="400" r="8" fill="#C8E06A" opacity="0.54"/><circle cx="383" cy="182" r="18" fill="#F5F2ED" opacity="0.56"/><circle cx="180" cy="1128" r="4" fill="#6B7F8C" opacity="0.24"/><circle cx="331" cy="1392" r="20" fill="#FDB827" opacity="0.43"/><circle cx="615" cy="677" r="18" fill="#C8E06A" opacity="0.38"/><circle cx="658" cy="674" r="22" fill="#8B7EC8" opacity="0.37"/><circle cx="502" cy="651" r="6" fill="#E87A9A" opacity="0.70"/><circle cx="632" cy="189" r="14" fill="#FDB827" opacity="0.46"/><circle cx="632" cy="1316" r="11" fill="#8B7EC8" opacity="0.84"/><circle cx="511" cy="510" r="18" fill="#FDB827" opacity="0.72"/><circle cx="398" cy="217" r="2" fill="#FDB827" opacity="0.94"/><circle cx="500" cy="1124" r="2" fill="#6B7F8C" opacity="0.66"/><circle cx="220" cy="454" r="19" fill="#C8E06A" opacity="0.87"/><circle cx="604" cy="1196" r="7" fill="#F5F2ED" opacity="0.77"/><circle cx="726" cy="980" r="20" fill="#1E9BD7" opacity="0.80"/><circle cx="799" cy="255" r="3" fill="#8B7EC8" opacity="0.51"/><circle cx="214" cy="208" r="16" fill="#FDB827" opacity="0.54"/><circle cx="393" cy="143" r="11" fill="#1E9BD7" opacity="0.45"/><circle cx="74" cy="442" r="8" fill="#1E9BD7" opacity="0.31"/><circle cx="406" cy="1322" r="5" fill="#1E9BD7" opacity="0.66"/><circle cx="804" cy="501" r="11" fill="#1E9BD7" opacity="0.65"/><circle cx="721" cy="1029" r="20" fill="#FDB827" opacity="0.34"/><circle cx="248" cy="432" r="10" fill="#C4785A" opacity="0.77"/><circle cx="505" cy="163" r="6" fill="#C4785A" opacity="0.37"/><circle cx="628" cy="389" r="20" fill="#F5F2ED" opacity="0.33"/><circle cx="434" cy="827" r="20" fill="#8B7EC8" opacity="0.68"/><circle cx="499" cy="577" r="4" fill="#E87A9A" opacity="0.77"/><circle cx="237" cy="11" r="18" fill="#FDB827" opacity="0.36"/><circle cx="592" cy="1076" r="2" fill="#6B7F8C" opacity="0.90"/><circle cx="672" cy="1010" r="7" fill="#6B7F8C" opacity="0.52"/>
  <text x="50%" y="48%" text-anchor="middle" fill="#1E9BD7" font-family="Arial Black, Helvetica, sans-serif" font-size="64" font-weight="800">PULSE</text>
  <text x="50%" y="58%" text-anchor="middle" fill="#F5F2ED" font-family="Helvetica, Arial, sans-serif" font-size="22" opacity="0.7">SPLIT TAKE MEDIA</text>
</svg>