<svg xmlns="http://www.w3.org/2000/svg" width="1200" height="1400" viewBox="0 0 1200 1400">
  <rect width="100%" height="100%" fill="#1a1a1a"/>
  <circle cx="303" cy="1385" r="13" fill="#6B7F8C" opacity="0.64"/><circle cx="373" cy="787" r="11" fill="#8B7EC8" opacity="0.55"/><circle cx="1190" cy="88" r="18" fill="#8B7EC8" opacity="0.68"/><circle cx="1064" cy="379" r="14" fill="#E87A9A" opacity="0.41"/><circle cx="262" cy="173" r="3" fill="#F5F2ED" opacity="0.38"/><circle cx="1178" cy="904" r="18" fill="#6B7F8C" opacity="0.75"/><circle cx="1076" cy="297" r="17" fill="#8B7EC8" opacity="0.54"/><circle cx="980" cy="1372" r="4" fill="#6B7F8C" opacity="0.68"/><circle cx="681" cy="773" r="8" fill="#8B7EC8" opacity="0.55"/><circle cx="882" cy="815" r="6" fill="#6B7F8C" opacity="0.50"/><circle cx="147" cy="1205" r="9" fill="#F5F2ED" opacity="0.46"/><circle cx="261" cy="1142" r="16" fill="#F5F2ED" opacity="0.79"/><circle cx="547" cy="647" r="17" fill="#F5F2ED" opacity="0.91"/><circle cx="915" cy="1281" r="18" fill="#F5F2ED" opacity="0.40"/><circle cx="500" cy="419" r="7" fill="#8B7EC8" opacity="0.84"/><circle cx="757" cy="1080" r="3" fill="#E87A9A" opacity="0.33"/><circle cx="970" cy="352" r="11" fill="#C4785A" opacity="0.80"/><circle cx="1071" cy="787" r="10" fill="#E87A9A" opacity="0.73"/><circle cx="352" cy="436" r="12" fill="#E87A9A" opacity="0.38"/><circle cx="321" cy="452" r="18" fill="#E87A9A" opacity="0.35"/><circle cx="982" cy="1089" r="9" fill="#C4785A" opacity="0.31"/><circle cx="796" cy="564" r="6" fill="#C4785A" opacity="0.33"/><circle cx="308" cy="8" r="15" fill="#C8E06A" opacity="0.47"/><circle cx="911" cy="848" r="9" fill="#E87A9A" opacity="0.38"/><circle cx="608" cy="1392" r="8" fill="#C4785A" opacity="0.58"/><circle cx="946" cy="1170" r="8" fill="#F5F2ED" opacity="0.77"/><circle cx="530" cy="190" r="7" fill="#F5F2ED" opacity="0.52"/><circle cx="960" cy="285" r="2" fill="#C8E06A" opacity="0.44"/><circle cx="448" cy="378" r="15" fill="#F5F2ED" opacity="0.91"/><circle cx="483" cy="325" r="4" fill="#F5F2ED" opacity="0.34"/><circle cx="230" cy="321" r="10" fill="#F5F2ED" opacity="0.79"/><circle cx="383" cy="123" r="8" fill="#F5F2ED" opacity="0.91"/><circle cx="290" cy="278" r="16" fill="#F5F2ED" opacity="0.67"/><circle cx="987" cy="152" r="12" fill="#8B7EC8" opacity="0.34"/><circle cx="928" cy="1395" r="9" fill="#6B7F8C" opacity="0.75"/><circle cx="534" cy="1193" r="10" fill="#8B7EC8" opacity="0.36"/><circle cx="991" cy="401" r="4" fill="#C4785A" opacity="0.78"/><circle cx="414" cy="911" r="2" fill="#C8E06A" opacity="0.60"/><circle cx="1139" cy="1186" r="7" fill="#E87A9A" opacity="0.43"/><circle cx="203" cy="377" r="10" fill="#8B7EC8" opacity="0.88"/><circle cx="214" cy="249" r="8" fill="#6B7F8C" opacity="0.79"/><circle cx="362" cy="813" r="9" fill="#F5F2ED" opacity="0.87"/><circle cx="275" cy="693" r="17" fill="#C8E06A" opacity="0.50"/><circle cx="914" cy="491" r="8" fill="#E87A9A" opacity="0.72"/><circle cx="805" cy="223" r="3" fill="#F5F2ED" opacity="0.71"/><circle cx="711" cy="997" r="4" fill="#8B7EC8" opacity="0.29"/><circle cx="932" cy="433" r="2" fill="#E87A9A" opacity="0.27"/><circle cx="231" cy="615" r="18" fill="#F5F2ED" opacity="0.93"/><circle cx="114" cy="966" r="14" fill="#C4785A" opacity="0.56"/><circle cx="919" cy="777" r="9" fill="#C8E06A" opacity="0.48"/><circle cx="566" cy="1396" r="8" fill="#C4785A" opacity="0.69"/><circle cx="580" cy="1321" r="4" fill="#C4785A" opacity="0.85"/><circle cx="542" cy="593" r="18" fill="#6B7F8C" opacity="0.39"/><circle cx="48" cy="356" r="9" fill="#6B7F8C" opacity="0.73"/><circle cx="556" cy="4" r="8" fill="#E87A9A" opacity="0.67"/><circle cx="822" cy="1252" r="9" fill="#8B7EC8" opacity="0.66"/><circle cx="349" cy="818" r="17" fill="#8B7EC8" opacity="0.26"/><circle cx="1098" cy="47" r="15" fill="#C8E06A" opacity="0.60"/><circle cx="1071" cy="486" r="12" fill="#E87A9A" opacity="0.32"/><circle cx="822" cy="1391" r="4" fill="#E87A9A" opacity="0.80"/><circle cx="170" cy="1023" r="17" fill="#6B7F8C" opacity="0.51"/><circle cx="30" cy="207" r="11" fill="#C4785A" opacity="0.48"/><circle cx="1010" cy="1044" r="3" fill="#F5F2ED" opacity="0.38"/><circle cx="421" cy="787" r="9" fill="#E87A9A" opacity="0.48"/><circle cx="316" cy="1029" r="2" fill="#C4785A" opacity="0.60"/><circle cx="579" cy="1220" r="3" fill="#E87A9A" opacity="0.52"/><circle cx="865" cy="68" r="2" fill="#F5F2ED" opacity="0.58"/><circle cx="1114" cy="753" r="10" fill="#C8E06A" opacity="0.71"/><circle cx="202" cy="495" r="10" fill="#C8E06A" opacity="0.38"/><circle cx="747" cy="289" r="14" fill="#C4785A" opacity="0.52"/><circle cx="704" cy="370" r="9" fill="#E87A9A" opacity="0.76"/><circle cx="346" cy="589" r="13" fill="#8B7EC8" opacity="0.93"/><circle cx="826" cy="946" r="12" fill="#6B7F8C" opacity="0.61"/><circle cx="16" cy="667" r="13" fill="#6B7F8C" opacity="0.27"/><circle cx="246" cy="1231" r="8" fill="#6B7F8C" opacity="0.90"/><circle cx="15" cy="855" r="16" fill="#6B7F8C" opacity="0.62"/><circle cx="326" cy="221" r="6" fill="#8B7EC8" opacity="0.59"/><circle cx="760" cy="977" r="2" fill="#8B7EC8" opacity="0.78"/><circle cx="424" cy="1374" r="7" fill="#E87A9A" opacity="0.90"/><circle cx="400" cy="412" r="7" fill="#E87A9A" opacity="0.49"/><circle cx="182" cy="1071" r="12" fill="#E87A9A" opacity="0.34"/><circle cx="1128" cy="151" r="5" fill="#C4785A" opacity="0.77"/><circle cx="663" cy="1392" r="14" fill="#C8E06A" opacity="0.32"/><circle cx="677" cy="1055" r="7" fill="#6B7F8C" opacity="0.79"/><circle cx="674" cy="1305" r="11" fill="#6B7F8C" opacity="0.58"/><circle cx="651" cy="1350" r="6" fill="#6B7F8C" opacity="0.71"/><circle cx="189" cy="807" r="14" fill="#C8E06A" opacity="0.49"/><circle cx="593" cy="1157" r="10" fill="#F5F2ED" opacity="0.88"/><circle cx="510" cy="1064" r="15" fill="#F5F2ED" opacity="0.27"/><circle cx="217" cy="54" r="15" fill="#C8E06A" opacity="0.59"/>
  <text x="50%" y="52%" text-anchor="middle" fill="#F5F2ED" font-family="Arial Black, Helvetica, sans-serif" font-size="100" font-weight="800" opacity="0.9">PULSE</text>
</svg>