<svg xmlns="http://www.w3.org/2000/svg" width="1200" height="800" viewBox="0 0 1200 800">
  <rect width="100%" height="100%" fill="#141414"/>
  <polygon points="0,0 420.0,0 0,440.00000000000006" fill="#1E9BD7" opacity="0.35"/>
  <circle cx="981" cy="17" r="19" fill="#1E9BD7" opacity="0.24"/><circle cx="530" cy="65" r="8" fill="#1E9BD7" opacity="0.47"/><circle cx="923" cy="758" r="22" fill="#8B7EC8" opacity="0.72"/><circle cx="958" cy="284" r="17" fill="#C8E06A" opacity="0.34"/><circle cx="747" cy="502" r="13" fill="#6B7F8C" opacity="0.42"/><circle cx="677" cy="183" r="6" fill="#FDB827" opacity="0.26"/><circle cx="190" cy="755" r="12" fill="#6B7F8C" opacity="0.74"/><circle cx="764" cy="452" r="19" fill="#8B7EC8" opacity="0.66"/><circle cx="1017" cy="457" r="15" fill="#E87A9A" opacity="0.32"/><circle cx="291" cy="502" r="8" fill="#C8E06A" opacity="0.38"/><circle cx="658" cy="578" r="19" fill="#E87A9A" opacity="0.94"/><circle cx="647" cy="275" r="6" fill="#F5F2ED" opacity="0.61"/><circle cx="927" cy="548" r="14" fill="#E87A9A" opacity="0.69"/><circle cx="490" cy="644" r="18" fill="#F5F2ED" opacity="0.49"/><circle cx="791" cy="673" r="6" fill="#C8E06A" opacity="0.65"/><circle cx="709" cy="550" r="18" fill="#6B7F8C" opacity="0.73"/><circle cx="1103" cy="729" r="17" fill="#1E9BD7" opacity="0.59"/><circle cx="451" cy="562" r="2" fill="#E87A9A" opacity="0.87"/><circle cx="193" cy="766" r="15" fill="#6B7F8C" opacity="0.48"/><circle cx="601" cy="217" r="6" fill="#C4785A" opacity="0.25"/><circle cx="629" cy="687" r="10" fill="#6B7F8C" opacity="0.94"/><circle cx="945" cy="2" r="15" fill="#E87A9A" opacity="0.28"/><circle cx="559" cy="42" r="11" fill="#C4785A" opacity="0.57"/><circle cx="586" cy="684" r="7" fill="#C4785A" opacity="0.65"/><circle cx="10" cy="542" r="7" fill="#F5F2ED" opacity="0.73"/><circle cx="664" cy="124" r="3" fill="#8B7EC8" opacity="0.60"/><circle cx="69" cy="120" r="8" fill="#F5F2ED" opacity="0.66"/><circle cx="849" cy="788" r="3" fill="#F5F2ED" opacity="0.44"/><circle cx="409" cy="682" r="16" fill="#E87A9A" opacity="0.65"/><circle cx="646" cy="548" r="13" fill="#FDB827" opacity="0.87"/><circle cx="15" cy="425" r="12" fill="#FDB827" opacity="0.24"/><circle cx="1043" cy="296" r="6" fill="#1E9BD7" opacity="0.90"/><circle cx="522" cy="702" r="5" fill="#8B7EC8" opacity="0.77"/><circle cx="411" cy="345" r="10" fill="#C4785A" opacity="0.42"/><circle cx="748" cy="157" r="4" fill="#1E9BD7" opacity="0.53"/><circle cx="1152" cy="195" r="6" fill="#1E9BD7" opacity="0.29"/><circle cx="178" cy="600" r="21" fill="#1E9BD7" opacity="0.55"/><circle cx="182" cy="90" r="20" fill="#F5F2ED" opacity="0.50"/><circle cx="440" cy="122" r="9" fill="#C4785A" opacity="0.84"/><circle cx="523" cy="630" r="20" fill="#FDB827" opacity="0.21"/><circle cx="694" cy="286" r="17" fill="#C4785A" opacity="0.24"/><circle cx="140" cy="91" r="14" fill="#8B7EC8" opacity="0.88"/><circle cx="704" cy="468" r="7" fill="#1E9BD7" opacity="0.64"/><circle cx="602" cy="789" r="9" fill="#E87A9A" opacity="0.58"/><circle cx="1157" cy="6" r="6" fill="#C8E06A" opacity="0.62"/><circle cx="728" cy="482" r="19" fill="#C4785A" opacity="0.23"/><circle cx="235" cy="592" r="12" fill="#8B7EC8" opacity="0.43"/><circle cx="46" cy="54" r="2" fill="#6B7F8C" opacity="0.84"/><circle cx="38" cy="340" r="13" fill="#FDB827" opacity="0.64"/><circle cx="171" cy="781" r="21" fill="#1E9BD7" opacity="0.53"/><circle cx="326" cy="479" r="6" fill="#C8E06A" opacity="0.52"/><circle cx="1003" cy="367" r="19" fill="#F5F2ED" opacity="0.79"/><circle cx="1006" cy="41" r="5" fill="#6B7F8C" opacity="0.75"/><circle cx="499" cy="542" r="17" fill="#C8E06A" opacity="0.52"/><circle cx="452" cy="312" r="6" fill="#C4785A" opacity="0.85"/><circle cx="175" cy="524" r="21" fill="#FDB827" opacity="0.46"/><circle cx="940" cy="202" r="5" fill="#F5F2ED" opacity="0.60"/><circle cx="494" cy="413" r="2" fill="#1E9BD7" opacity="0.84"/><circle cx="165" cy="459" r="6" fill="#E87A9A" opacity="0.90"/><circle cx="1147" cy="496" r="18" fill="#8B7EC8" opacity="0.35"/><circle cx="4" cy="634" r="18" fill="#C4785A" opacity="0.64"/><circle cx="250" cy="703" r="21" fill="#C8E06A" opacity="0.82"/><circle cx="680" cy="690" r="4" fill="#C4785A" opacity="0.37"/><circle cx="479" cy="177" r="12" fill="#8B7EC8" opacity="0.69"/><circle cx="556" cy="591" r="7" fill="#6B7F8C" opacity="0.38"/><circle cx="137" cy="233" r="18" fill="#F5F2ED" opacity="0.38"/><circle cx="318" cy="413" r="16" fill="#C8E06A" opacity="0.70"/><circle cx="604" cy="272" r="18" fill="#C8E06A" opacity="0.47"/><circle cx="782" cy="533" r="19" fill="#6B7F8C" opacity="0.53"/><circle cx="614" cy="35" r="9" fill="#F5F2ED" opacity="0.25"/><circle cx="428" cy="384" r="10" fill="#1E9BD7" opacity="0.65"/><circle cx="557" cy="644" r="9" fill="#1E9BD7" opacity="0.72"/><circle cx="720" cy="610" r="16" fill="#FDB827" opacity="0.41"/><circle cx="178" cy="230" r="15" fill="#6B7F8C" opacity="0.59"/><circle cx="325" cy="399" r="19" fill="#E87A9A" opacity="0.73"/><circle cx="27" cy="582" r="9" fill="#C4785A" opacity="0.87"/><circle cx="765" cy="105" r="17" fill="#E87A9A" opacity="0.83"/><circle cx="839" cy="748" r="18" fill="#E87A9A" opacity="0.56"/><circle cx="111" cy="267" r="13" fill="#E87A9A" opacity="0.87"/><circle cx="132" cy="240" r="12" fill="#8B7EC8" opacity="0.62"/><circle cx="855" cy="511" r="14" fill="#6B7F8C" opacity="0.73"/><circle cx="126" cy="508" r="18" fill="#F5F2ED" opacity="0.61"/><circle cx="224" cy="771" r="3" fill="#8B7EC8" opacity="0.39"/><circle cx="381" cy="64" r="11" fill="#E87A9A" opacity="0.57"/><circle cx="459" cy="774" r="16" fill="#6B7F8C" opacity="0.56"/><circle cx="75" cy="385" r="3" fill="#F5F2ED" opacity="0.61"/><circle cx="97" cy="743" r="7" fill="#C8E06A" opacity="0.50"/><circle cx="1132" cy="768" r="6" fill="#C8E06A" opacity="0.32"/><circle cx="29" cy="83" r="17" fill="#FDB827" opacity="0.76"/><circle cx="1049" cy="334" r="15" fill="#E87A9A" opacity="0.88"/><circle cx="896" cy="426" r="14" fill="#FDB827" opacity="0.83"/><circle cx="293" cy="589" r="9" fill="#1E9BD7" opacity="0.59"/><circle cx="1138" cy="464" r="5" fill="#8B7EC8" opacity="0.84"/><circle cx="685" cy="284" r="16" fill="#F5F2ED" opacity="0.93"/><circle cx="1037" cy="79" r="10" fill="#C8E06A" opacity="0.90"/><circle cx="998" cy="643" r="18" fill="#6B7F8C" opacity="0.51"/><circle cx="797" cy="311" r="4" fill="#6B7F8C" opacity="0.37"/><circle cx="33" cy="484" r="4" fill="#E87A9A" opacity="0.32"/><circle cx="12" cy="431" r="20" fill="#FDB827" opacity="0.74"/><circle cx="4" cy="605" r="17" fill="#FDB827" opacity="0.52"/><circle cx="142" cy="254" r="22" fill="#1E9BD7" opacity="0.77"/><circle cx="1156" cy="467" r="11" fill="#FDB827" opacity="0.26"/><circle cx="76" cy="381" r="4" fill="#C8E06A" opacity="0.25"/><circle cx="51" cy="146" r="14" fill="#C4785A" opacity="0.58"/><circle cx="222" cy="703" r="13" fill="#E87A9A" opacity="0.44"/><circle cx="659" cy="353" r="16" fill="#8B7EC8" opacity="0.70"/><circle cx="405" cy="585" r="19" fill="#E87A9A" opacity="0.69"/><circle cx="439" cy="241" r="8" fill="#6B7F8C" opacity="0.78"/><circle cx="914" cy="1" r="12" fill="#E87A9A" opacity="0.23"/><circle cx="1199" cy="539" r="4" fill="#1E9BD7" opacity="0.48"/>
  <text x="50%" y="48%" text-anchor="middle" fill="#61BB46" font-family="Arial Black, Helvetica, sans-serif" font-size="85" font-weight="800">SIGNAL</text>
  <text x="50%" y="58%" text-anchor="middle" fill="#F5F2ED" font-family="Helvetica, Arial, sans-serif" font-size="30" opacity="0.7">SPLIT TAKE MEDIA</text>
</svg>