<svg xmlns="http://www.w3.org/2000/svg" width="1200" height="800" viewBox="0 0 1200 800">
  <rect width="100%" height="100%" fill="#1a1a1a"/>
  <circle cx="934" cy="736" r="8" fill="#F5F2ED" opacity="0.30"/><circle cx="249" cy="670" r="14" fill="#E87A9A" opacity="0.87"/><circle cx="243" cy="500" r="4" fill="#6B7F8C" opacity="0.41"/><circle cx="50" cy="45" r="9" fill="#C4785A" opacity="0.73"/><circle cx="1071" cy="300" r="7" fill="#F5F2ED" opacity="0.54"/><circle cx="1189" cy="740" r="15" fill="#6B7F8C" opacity="0.80"/><circle cx="1172" cy="789" r="9" fill="#C4785A" opacity="0.51"/><circle cx="1188" cy="223" r="18" fill="#E87A9A" opacity="0.83"/><circle cx="576" cy="220" r="18" fill="#E87A9A" opacity="0.62"/><circle cx="1072" cy="303" r="3" fill="#E87A9A" opacity="0.83"/><circle cx="268" cy="430" r="18" fill="#C8E06A" opacity="0.89"/><circle cx="985" cy="356" r="5" fill="#F5F2ED" opacity="0.74"/><circle cx="184" cy="313" r="17" fill="#F5F2ED" opacity="0.95"/><circle cx="1153" cy="784" r="5" fill="#F5F2ED" opacity="0.52"/><circle cx="40" cy="563" r="17" fill="#8B7EC8" opacity="0.68"/><circle cx="781" cy="746" r="16" fill="#C8E06A" opacity="0.77"/><circle cx="132" cy="180" r="16" fill="#C4785A" opacity="0.48"/><circle cx="605" cy="10" r="9" fill="#8B7EC8" opacity="0.42"/><circle cx="448" cy="234" r="14" fill="#6B7F8C" opacity="0.65"/><circle cx="778" cy="28" r="17" fill="#E87A9A" opacity="0.48"/><circle cx="1135" cy="148" r="3" fill="#C8E06A" opacity="0.44"/><circle cx="475" cy="549" r="5" fill="#E87A9A" opacity="0.47"/><circle cx="370" cy="186" r="10" fill="#C8E06A" opacity="0.62"/><circle cx="66" cy="716" r="17" fill="#C8E06A" opacity="0.34"/><circle cx="136" cy="28" r="14" fill="#F5F2ED" opacity="0.76"/><circle cx="840" cy="439" r="11" fill="#C8E06A" opacity="0.67"/><circle cx="1106" cy="326" r="15" fill="#C8E06A" opacity="0.44"/><circle cx="69" cy="409" r="16" fill="#C8E06A" opacity="0.81"/><circle cx="860" cy="144" r="6" fill="#E87A9A" opacity="0.79"/><circle cx="1158" cy="559" r="2" fill="#C4785A" opacity="0.59"/><circle cx="38" cy="341" r="6" fill="#6B7F8C" opacity="0.67"/><circle cx="771" cy="120" r="10" fill="#F5F2ED" opacity="0.26"/><circle cx="1127" cy="555" r="5" fill="#8B7EC8" opacity="0.29"/><circle cx="297" cy="542" r="13" fill="#C4785A" opacity="0.78"/><circle cx="1151" cy="259" r="9" fill="#C8E06A" opacity="0.55"/><circle cx="185" cy="300" r="14" fill="#8B7EC8" opacity="0.79"/><circle cx="609" cy="198" r="15" fill="#F5F2ED" opacity="0.90"/><circle cx="1183" cy="526" r="16" fill="#F5F2ED" opacity="0.66"/><circle cx="474" cy="339" r="5" fill="#C8E06A" opacity="0.45"/><circle cx="1052" cy="291" r="4" fill="#E87A9A" opacity="0.57"/><circle cx="107" cy="675" r="10" fill="#E87A9A" opacity="0.27"/><circle cx="363" cy="534" r="5" fill="#8B7EC8" opacity="0.42"/><circle cx="595" cy="365" r="14" fill="#C8E06A" opacity="0.39"/><circle cx="220" cy="68" r="12" fill="#E87A9A" opacity="0.83"/><circle cx="561" cy="150" r="16" fill="#C8E06A" opacity="0.87"/><circle cx="562" cy="100" r="14" fill="#C4785A" opacity="0.46"/><circle cx="610" cy="160" r="17" fill="#C8E06A" opacity="0.71"/><circle cx="1072" cy="328" r="16" fill="#F5F2ED" opacity="0.64"/><circle cx="554" cy="32" r="6" fill="#E87A9A" opacity="0.78"/><circle cx="843" cy="15" r="10" fill="#F5F2ED" opacity="0.87"/><circle cx="719" cy="435" r="5" fill="#C8E06A" opacity="0.50"/><circle cx="517" cy="707" r="3" fill="#F5F2ED" opacity="0.27"/><circle cx="943" cy="557" r="8" fill="#C8E06A" opacity="0.45"/><circle cx="681" cy="267" r="5" fill="#C8E06A" opacity="0.76"/><circle cx="552" cy="358" r="6" fill="#6B7F8C" opacity="0.57"/><circle cx="840" cy="217" r="8" fill="#F5F2ED" opacity="0.45"/><circle cx="445" cy="776" r="16" fill="#C8E06A" opacity="0.89"/><circle cx="346" cy="306" r="15" fill="#6B7F8C" opacity="0.49"/><circle cx="379" cy="456" r="11" fill="#8B7EC8" opacity="0.80"/><circle cx="349" cy="728" r="10" fill="#6B7F8C" opacity="0.67"/><circle cx="917" cy="631" r="17" fill="#8B7EC8" opacity="0.63"/><circle cx="181" cy="223" r="3" fill="#F5F2ED" opacity="0.34"/><circle cx="652" cy="548" r="9" fill="#E87A9A" opacity="0.35"/><circle cx="693" cy="182" r="12" fill="#F5F2ED" opacity="0.56"/><circle cx="271" cy="243" r="4" fill="#F5F2ED" opacity="0.74"/><circle cx="795" cy="204" r="9" fill="#C4785A" opacity="0.32"/><circle cx="1074" cy="433" r="13" fill="#8B7EC8" opacity="0.58"/><circle cx="283" cy="636" r="2" fill="#E87A9A" opacity="0.29"/><circle cx="772" cy="668" r="4" fill="#E87A9A" opacity="0.55"/><circle cx="755" cy="128" r="17" fill="#E87A9A" opacity="0.38"/><circle cx="904" cy="281" r="9" fill="#F5F2ED" opacity="0.74"/><circle cx="616" cy="149" r="5" fill="#8B7EC8" opacity="0.46"/><circle cx="406" cy="708" r="2" fill="#C4785A" opacity="0.80"/><circle cx="1159" cy="510" r="11" fill="#C4785A" opacity="0.60"/><circle cx="756" cy="48" r="15" fill="#8B7EC8" opacity="0.51"/><circle cx="625" cy="21" r="12" fill="#F5F2ED" opacity="0.61"/><circle cx="547" cy="157" r="14" fill="#F5F2ED" opacity="0.59"/><circle cx="1074" cy="514" r="7" fill="#C4785A" opacity="0.40"/><circle cx="829" cy="135" r="9" fill="#C8E06A" opacity="0.87"/><circle cx="77" cy="468" r="3" fill="#F5F2ED" opacity="0.45"/><circle cx="696" cy="127" r="6" fill="#E87A9A" opacity="0.74"/><circle cx="880" cy="745" r="14" fill="#F5F2ED" opacity="0.82"/><circle cx="886" cy="163" r="3" fill="#8B7EC8" opacity="0.86"/><circle cx="648" cy="29" r="14" fill="#F5F2ED" opacity="0.93"/><circle cx="683" cy="21" r="16" fill="#8B7EC8" opacity="0.70"/><circle cx="783" cy="553" r="7" fill="#F5F2ED" opacity="0.34"/><circle cx="826" cy="708" r="13" fill="#C4785A" opacity="0.86"/><circle cx="716" cy="540" r="5" fill="#E87A9A" opacity="0.36"/><circle cx="697" cy="641" r="18" fill="#F5F2ED" opacity="0.49"/><circle cx="383" cy="538" r="7" fill="#8B7EC8" opacity="0.28"/>
  <text x="50%" y="52%" text-anchor="middle" fill="#F5F2ED" font-family="Arial Black, Helvetica, sans-serif" font-size="100" font-weight="800" opacity="0.9">HARBOR</text>
</svg>