<svg xmlns="http://www.w3.org/2000/svg" width="900" height="1400" viewBox="0 0 900 1400">
  <rect width="100%" height="100%" fill="#141414"/>
  <polygon points="0,0 315.0,0 0,770.0000000000001" fill="#A05FC4" opacity="0.35"/>
  <circle cx="899" cy="1211" r="13" fill="#6B7F8C" opacity="0.91"/><circle cx="319" cy="1073" r="20" fill="#F5F2ED" opacity="0.42"/><circle cx="870" cy="713" r="7" fill="#C8E06A" opacity="0.27"/><circle cx="405" cy="719" r="7" fill="#FDB827" opacity="0.66"/><circle cx="850" cy="942" r="17" fill="#E87A9A" opacity="0.73"/><circle cx="187" cy="1253" r="11" fill="#8B7EC8" opacity="0.25"/><circle cx="335" cy="1279" r="5" fill="#F5F2ED" opacity="0.82"/><circle cx="783" cy="1377" r="7" fill="#FDB827" opacity="0.92"/><circle cx="900" cy="1033" r="20" fill="#1E9BD7" opacity="0.82"/><circle cx="527" cy="774" r="20" fill="#8B7EC8" opacity="0.92"/><circle cx="810" cy="1071" r="5" fill="#FDB827" opacity="0.47"/><circle cx="723" cy="537" r="20" fill="#C8E06A" opacity="0.89"/><circle cx="565" cy="985" r="14" fill="#F5F2ED" opacity="0.93"/><circle cx="595" cy="29" r="19" fill="#E87A9A" opacity="0.35"/><circle cx="624" cy="380" r="12" fill="#FDB827" opacity="0.54"/><circle cx="597" cy="1034" r="7" fill="#C4785A" opacity="0.26"/><circle cx="650" cy="156" r="13" fill="#8B7EC8" opacity="0.40"/><circle cx="247" cy="1333" r="13" fill="#FDB827" opacity="0.43"/><circle cx="884" cy="229" r="5" fill="#1E9BD7" opacity="0.80"/><circle cx="446" cy="1275" r="12" fill="#6B7F8C" opacity="0.38"/><circle cx="44" cy="586" r="8" fill="#E87A9A" opacity="0.76"/><circle cx="882" cy="745" r="7" fill="#E87A9A" opacity="0.90"/><circle cx="849" cy="553" r="10" fill="#6B7F8C" opacity="0.57"/><circle cx="700" cy="1081" r="19" fill="#1E9BD7" opacity="0.77"/><circle cx="615" cy="339" r="6" fill="#E87A9A" opacity="0.63"/><circle cx="50" cy="1327" r="16" fill="#F5F2ED" opacity="0.76"/><circle cx="678" cy="715" r="13" fill="#F5F2ED" opacity="0.21"/><circle cx="335" cy="1317" r="14" fill="#F5F2ED" opacity="0.68"/><circle cx="109" cy="475" r="9" fill="#8B7EC8" opacity="0.88"/><circle cx="827" cy="573" r="4" fill="#E87A9A" opacity="0.89"/><circle cx="36" cy="66" r="19" fill="#6B7F8C" opacity="0.46"/><circle cx="93" cy="1397" r="12" fill="#1E9BD7" opacity="0.53"/><circle cx="670" cy="976" r="7" fill="#1E9BD7" opacity="0.20"/><circle cx="645" cy="274" r="11" fill="#1E9BD7" opacity="0.75"/><circle cx="190" cy="1163" r="9" fill="#6B7F8C" opacity="0.73"/><circle cx="370" cy="430" r="14" fill="#C4785A" opacity="0.74"/><circle cx="94" cy="1117" r="16" fill="#1E9BD7" opacity="0.58"/><circle cx="803" cy="777" r="3" fill="#F5F2ED" opacity="0.66"/><circle cx="734" cy="1178" r="16" fill="#6B7F8C" opacity="0.88"/><circle cx="189" cy="25" r="5" fill="#6B7F8C" opacity="0.71"/><circle cx="489" cy="1007" r="15" fill="#8B7EC8" opacity="0.41"/><circle cx="475" cy="650" r="5" fill="#1E9BD7" opacity="0.59"/><circle cx="678" cy="1360" r="19" fill="#8B7EC8" opacity="0.73"/><circle cx="385" cy="734" r="11" fill="#F5F2ED" opacity="0.22"/><circle cx="344" cy="426" r="17" fill="#8B7EC8" opacity="0.95"/><circle cx="418" cy="814" r="16" fill="#FDB827" opacity="0.59"/><circle cx="893" cy="656" r="4" fill="#C4785A" opacity="0.39"/><circle cx="309" cy="869" r="14" fill="#1E9BD7" opacity="0.86"/><circle cx="818" cy="525" r="15" fill="#F5F2ED" opacity="0.67"/><circle cx="781" cy="689" r="20" fill="#C4785A" opacity="0.26"/><circle cx="489" cy="26" r="17" fill="#FDB827" opacity="0.56"/><circle cx="823" cy="919" r="7" fill="#8B7EC8" opacity="0.45"/><circle cx="193" cy="210" r="19" fill="#8B7EC8" opacity="0.95"/><circle cx="285" cy="471" r="14" fill="#C4785A" opacity="0.77"/><circle cx="160" cy="1067" r="3" fill="#FDB827" opacity="0.29"/><circle cx="477" cy="110" r="3" fill="#F5F2ED" opacity="0.55"/><circle cx="62" cy="621" r="7" fill="#F5F2ED" opacity="0.92"/><circle cx="184" cy="5" r="19" fill="#1E9BD7" opacity="0.73"/><circle cx="296" cy="433" r="22" fill="#F5F2ED" opacity="0.94"/><circle cx="584" cy="1092" r="10" fill="#F5F2ED" opacity="0.76"/><circle cx="469" cy="342" r="14" fill="#FDB827" opacity="0.56"/><circle cx="862" cy="643" r="21" fill="#E87A9A" opacity="0.82"/><circle cx="363" cy="600" r="5" fill="#1E9BD7" opacity="0.45"/><circle cx="643" cy="798" r="20" fill="#C8E06A" opacity="0.34"/><circle cx="132" cy="701" r="6" fill="#FDB827" opacity="0.44"/><circle cx="102" cy="786" r="7" fill="#FDB827" opacity="0.50"/><circle cx="431" cy="386" r="21" fill="#C4785A" opacity="0.88"/><circle cx="705" cy="258" r="12" fill="#E87A9A" opacity="0.28"/><circle cx="602" cy="1054" r="4" fill="#8B7EC8" opacity="0.48"/><circle cx="897" cy="253" r="4" fill="#6B7F8C" opacity="0.44"/><circle cx="616" cy="92" r="20" fill="#E87A9A" opacity="0.95"/><circle cx="497" cy="391" r="5" fill="#C8E06A" opacity="0.58"/><circle cx="652" cy="6" r="20" fill="#FDB827" opacity="0.77"/><circle cx="563" cy="330" r="7" fill="#8B7EC8" opacity="0.94"/><circle cx="83" cy="1144" r="9" fill="#E87A9A" opacity="0.30"/><circle cx="296" cy="41" r="8" fill="#1E9BD7" opacity="0.92"/><circle cx="209" cy="888" r="9" fill="#E87A9A" opacity="0.45"/><circle cx="630" cy="1168" r="14" fill="#8B7EC8" opacity="0.88"/><circle cx="72" cy="1108" r="15" fill="#C4785A" opacity="0.57"/><circle cx="50" cy="182" r="19" fill="#6B7F8C" opacity="0.60"/><circle cx="8" cy="237" r="14" fill="#F5F2ED" opacity="0.86"/><circle cx="158" cy="1052" r="11" fill="#1E9BD7" opacity="0.59"/><circle cx="149" cy="335" r="11" fill="#E87A9A" opacity="0.75"/><circle cx="222" cy="134" r="18" fill="#8B7EC8" opacity="0.30"/><circle cx="489" cy="350" r="8" fill="#FDB827" opacity="0.78"/><circle cx="388" cy="314" r="15" fill="#FDB827" opacity="0.40"/><circle cx="821" cy="1165" r="8" fill="#C4785A" opacity="0.48"/><circle cx="13" cy="1093" r="9" fill="#1E9BD7" opacity="0.54"/><circle cx="515" cy="1097" r="21" fill="#C8E06A" opacity="0.37"/><circle cx="405" cy="498" r="5" fill="#C8E06A" opacity="0.46"/><circle cx="697" cy="548" r="11" fill="#6B7F8C" opacity="0.40"/><circle cx="761" cy="397" r="19" fill="#C8E06A" opacity="0.68"/><circle cx="129" cy="1199" r="20" fill="#8B7EC8" opacity="0.37"/><circle cx="52" cy="846" r="22" fill="#E87A9A" opacity="0.36"/><circle cx="799" cy="908" r="19" fill="#8B7EC8" opacity="0.50"/><circle cx="612" cy="1050" r="4" fill="#FDB827" opacity="0.70"/><circle cx="841" cy="161" r="15" fill="#8B7EC8" opacity="0.22"/><circle cx="729" cy="1278" r="14" fill="#E87A9A" opacity="0.34"/><circle cx="769" cy="695" r="15" fill="#8B7EC8" opacity="0.58"/><circle cx="614" cy="927" r="21" fill="#8B7EC8" opacity="0.89"/><circle cx="553" cy="953" r="12" fill="#FDB827" opacity="0.45"/><circle cx="193" cy="577" r="10" fill="#F5F2ED" opacity="0.94"/><circle cx="206" cy="960" r="20" fill="#FDB827" opacity="0.27"/><circle cx="271" cy="324" r="10" fill="#FDB827" opacity="0.49"/><circle cx="155" cy="332" r="18" fill="#FDB827" opacity="0.42"/><circle cx="58" cy="1139" r="9" fill="#F5F2ED" opacity="0.84"/><circle cx="340" cy="182" r="5" fill="#8B7EC8" opacity="0.28"/><circle cx="397" cy="381" r="4" fill="#1E9BD7" opacity="0.64"/><circle cx="173" cy="303" r="15" fill="#FDB827" opacity="0.90"/><circle cx="368" cy="270" r="22" fill="#E87A9A" opacity="0.45"/>
  <text x="50%" y="48%" text-anchor="middle" fill="#A05FC4" font-family="Arial Black, Helvetica, sans-serif" font-size="64" font-weight="800">WEEKEND</text>
  <text x="50%" y="58%" text-anchor="middle" fill="#F5F2ED" font-family="Helvetica, Arial, sans-serif" font-size="22" opacity="0.7">SPLIT TAKE MEDIA</text>
</svg>