<svg xmlns="http://www.w3.org/2000/svg" width="1000" height="1000" viewBox="0 0 1000 1000">
  <rect width="100%" height="100%" fill="#141414"/>
  <polygon points="0,0 350.0,0 0,550.0" fill="#A05FC4" opacity="0.35"/>
  <circle cx="731" cy="467" r="8" fill="#6B7F8C" opacity="0.88"/><circle cx="756" cy="124" r="22" fill="#FDB827" opacity="0.55"/><circle cx="346" cy="893" r="5" fill="#1E9BD7" opacity="0.26"/><circle cx="227" cy="597" r="2" fill="#C4785A" opacity="0.37"/><circle cx="109" cy="708" r="6" fill="#8B7EC8" opacity="0.34"/><circle cx="419" cy="881" r="20" fill="#FDB827" opacity="0.37"/><circle cx="673" cy="586" r="21" fill="#E87A9A" opacity="0.26"/><circle cx="207" cy="594" r="8" fill="#1E9BD7" opacity="0.82"/><circle cx="729" cy="288" r="8" fill="#1E9BD7" opacity="0.60"/><circle cx="725" cy="536" r="11" fill="#C4785A" opacity="0.56"/><circle cx="149" cy="134" r="15" fill="#8B7EC8" opacity="0.89"/><circle cx="492" cy="941" r="13" fill="#6B7F8C" opacity="0.83"/><circle cx="673" cy="716" r="4" fill="#8B7EC8" opacity="0.56"/><circle cx="127" cy="934" r="20" fill="#6B7F8C" opacity="0.73"/><circle cx="298" cy="20" r="19" fill="#1E9BD7" opacity="0.65"/><circle cx="403" cy="390" r="16" fill="#8B7EC8" opacity="0.76"/><circle cx="66" cy="180" r="16" fill="#C4785A" opacity="0.44"/><circle cx="302" cy="893" r="2" fill="#E87A9A" opacity="0.62"/><circle cx="637" cy="224" r="9" fill="#FDB827" opacity="0.32"/><circle cx="86" cy="661" r="14" fill="#C4785A" opacity="0.56"/><circle cx="338" cy="91" r="19" fill="#C8E06A" opacity="0.71"/><circle cx="335" cy="281" r="22" fill="#E87A9A" opacity="0.60"/><circle cx="466" cy="316" r="14" fill="#C8E06A" opacity="0.34"/><circle cx="372" cy="542" r="21" fill="#C4785A" opacity="0.72"/><circle cx="653" cy="892" r="17" fill="#F5F2ED" opacity="0.30"/><circle cx="662" cy="646" r="4" fill="#C4785A" opacity="0.67"/><circle cx="393" cy="641" r="7" fill="#FDB827" opacity="0.52"/><circle cx="296" cy="789" r="11" fill="#F5F2ED" opacity="0.51"/><circle cx="273" cy="533" r="3" fill="#FDB827" opacity="0.81"/><circle cx="462" cy="336" r="15" fill="#C8E06A" opacity="0.30"/><circle cx="793" cy="454" r="20" fill="#C4785A" opacity="0.29"/><circle cx="942" cy="19" r="12" fill="#C8E06A" opacity="0.38"/><circle cx="472" cy="724" r="14" fill="#6B7F8C" opacity="0.40"/><circle cx="12" cy="664" r="21" fill="#6B7F8C" opacity="0.66"/><circle cx="140" cy="956" r="6" fill="#F5F2ED" opacity="0.85"/><circle cx="802" cy="49" r="19" fill="#8B7EC8" opacity="0.72"/><circle cx="259" cy="444" r="4" fill="#8B7EC8" opacity="0.77"/><circle cx="593" cy="795" r="17" fill="#8B7EC8" opacity="0.35"/><circle cx="682" cy="950" r="22" fill="#1E9BD7" opacity="0.75"/><circle cx="237" cy="966" r="12" fill="#6B7F8C" opacity="0.47"/><circle cx="687" cy="627" r="18" fill="#8B7EC8" opacity="0.26"/><circle cx="481" cy="471" r="14" fill="#C4785A" opacity="0.69"/><circle cx="497" cy="23" r="6" fill="#C8E06A" opacity="0.59"/><circle cx="975" cy="103" r="21" fill="#E87A9A" opacity="0.44"/><circle cx="365" cy="678" r="14" fill="#F5F2ED" opacity="0.35"/><circle cx="110" cy="68" r="22" fill="#F5F2ED" opacity="0.77"/><circle cx="846" cy="726" r="10" fill="#C8E06A" opacity="0.53"/><circle cx="331" cy="900" r="12" fill="#8B7EC8" opacity="0.27"/><circle cx="409" cy="890" r="5" fill="#8B7EC8" opacity="0.70"/><circle cx="305" cy="160" r="17" fill="#F5F2ED" opacity="0.70"/><circle cx="536" cy="328" r="16" fill="#8B7EC8" opacity="0.22"/><circle cx="145" cy="502" r="7" fill="#FDB827" opacity="0.21"/><circle cx="274" cy="650" r="22" fill="#F5F2ED" opacity="0.90"/><circle cx="435" cy="104" r="10" fill="#F5F2ED" opacity="0.28"/><circle cx="258" cy="707" r="19" fill="#C4785A" opacity="0.71"/><circle cx="858" cy="471" r="19" fill="#E87A9A" opacity="0.47"/><circle cx="20" cy="340" r="10" fill="#6B7F8C" opacity="0.86"/><circle cx="742" cy="7" r="21" fill="#8B7EC8" opacity="0.46"/><circle cx="159" cy="202" r="16" fill="#8B7EC8" opacity="0.51"/><circle cx="217" cy="218" r="11" fill="#E87A9A" opacity="0.77"/><circle cx="703" cy="751" r="20" fill="#1E9BD7" opacity="0.44"/><circle cx="86" cy="795" r="7" fill="#8B7EC8" opacity="0.53"/><circle cx="345" cy="550" r="7" fill="#1E9BD7" opacity="0.70"/><circle cx="793" cy="667" r="11" fill="#8B7EC8" opacity="0.76"/><circle cx="715" cy="652" r="7" fill="#8B7EC8" opacity="0.38"/><circle cx="120" cy="640" r="16" fill="#1E9BD7" opacity="0.63"/><circle cx="327" cy="90" r="8" fill="#C4785A" opacity="0.73"/><circle cx="22" cy="326" r="19" fill="#E87A9A" opacity="0.50"/><circle cx="734" cy="346" r="7" fill="#F5F2ED" opacity="0.94"/><circle cx="882" cy="957" r="16" fill="#C4785A" opacity="0.30"/><circle cx="82" cy="745" r="14" fill="#E87A9A" opacity="0.84"/><circle cx="106" cy="100" r="18" fill="#FDB827" opacity="0.47"/><circle cx="482" cy="615" r="6" fill="#C4785A" opacity="0.84"/><circle cx="52" cy="948" r="14" fill="#6B7F8C" opacity="0.54"/><circle cx="669" cy="377" r="6" fill="#1E9BD7" opacity="0.50"/><circle cx="820" cy="452" r="10" fill="#E87A9A" opacity="0.75"/><circle cx="4" cy="308" r="6" fill="#6B7F8C" opacity="0.84"/><circle cx="310" cy="826" r="8" fill="#C4785A" opacity="0.27"/><circle cx="702" cy="579" r="17" fill="#8B7EC8" opacity="0.22"/><circle cx="546" cy="378" r="3" fill="#FDB827" opacity="0.64"/><circle cx="800" cy="749" r="11" fill="#C4785A" opacity="0.82"/><circle cx="764" cy="530" r="10" fill="#C8E06A" opacity="0.84"/><circle cx="389" cy="730" r="17" fill="#C8E06A" opacity="0.92"/><circle cx="537" cy="514" r="21" fill="#C8E06A" opacity="0.27"/><circle cx="767" cy="414" r="6" fill="#E87A9A" opacity="0.46"/><circle cx="473" cy="38" r="16" fill="#C4785A" opacity="0.67"/><circle cx="890" cy="348" r="5" fill="#C8E06A" opacity="0.55"/><circle cx="955" cy="711" r="15" fill="#FDB827" opacity="0.71"/><circle cx="980" cy="735" r="15" fill="#C8E06A" opacity="0.23"/><circle cx="895" cy="497" r="21" fill="#F5F2ED" opacity="0.22"/><circle cx="717" cy="930" r="14" fill="#E87A9A" opacity="0.45"/><circle cx="621" cy="476" r="21" fill="#FDB827" opacity="0.61"/><circle cx="901" cy="850" r="7" fill="#6B7F8C" opacity="0.28"/><circle cx="708" cy="673" r="13" fill="#6B7F8C" opacity="0.86"/><circle cx="716" cy="358" r="18" fill="#6B7F8C" opacity="0.48"/><circle cx="965" cy="652" r="12" fill="#F5F2ED" opacity="0.84"/><circle cx="963" cy="538" r="7" fill="#C4785A" opacity="0.39"/><circle cx="992" cy="394" r="18" fill="#1E9BD7" opacity="0.71"/><circle cx="852" cy="45" r="5" fill="#8B7EC8" opacity="0.92"/><circle cx="612" cy="998" r="7" fill="#6B7F8C" opacity="0.65"/><circle cx="58" cy="550" r="15" fill="#6B7F8C" opacity="0.48"/><circle cx="650" cy="461" r="6" fill="#8B7EC8" opacity="0.90"/><circle cx="797" cy="381" r="21" fill="#F5F2ED" opacity="0.65"/><circle cx="981" cy="48" r="6" fill="#C4785A" opacity="0.36"/><circle cx="986" cy="696" r="12" fill="#1E9BD7" opacity="0.80"/><circle cx="488" cy="677" r="19" fill="#6B7F8C" opacity="0.85"/><circle cx="517" cy="837" r="4" fill="#8B7EC8" opacity="0.77"/><circle cx="236" cy="447" r="20" fill="#F5F2ED" opacity="0.74"/><circle cx="70" cy="809" r="15" fill="#E87A9A" opacity="0.55"/><circle cx="260" cy="787" r="16" fill="#FDB827" opacity="0.23"/>
  <text x="50%" y="48%" text-anchor="middle" fill="#FDB827" font-family="Arial Black, Helvetica, sans-serif" font-size="71" font-weight="800">HARBOR</text>
  <text x="50%" y="58%" text-anchor="middle" fill="#F5F2ED" font-family="Helvetica, Arial, sans-serif" font-size="25" opacity="0.7">SPLIT TAKE MEDIA</text>
</svg>