<svg xmlns="http://www.w3.org/2000/svg" width="1200" height="800" viewBox="0 0 1200 800">
  <rect width="100%" height="100%" fill="#1a1a1a"/>
  <circle cx="1190" cy="199" r="13" fill="#E87A9A" opacity="0.28"/><circle cx="1031" cy="219" r="9" fill="#C8E06A" opacity="0.59"/><circle cx="434" cy="336" r="16" fill="#C4785A" opacity="0.43"/><circle cx="329" cy="90" r="16" fill="#8B7EC8" opacity="0.51"/><circle cx="966" cy="333" r="9" fill="#F5F2ED" opacity="0.80"/><circle cx="864" cy="213" r="4" fill="#E87A9A" opacity="0.58"/><circle cx="433" cy="113" r="12" fill="#F5F2ED" opacity="0.85"/><circle cx="547" cy="404" r="14" fill="#6B7F8C" opacity="0.55"/><circle cx="828" cy="762" r="15" fill="#C4785A" opacity="0.86"/><circle cx="443" cy="547" r="5" fill="#C8E06A" opacity="0.81"/><circle cx="759" cy="721" r="13" fill="#C4785A" opacity="0.43"/><circle cx="314" cy="35" r="15" fill="#6B7F8C" opacity="0.44"/><circle cx="308" cy="414" r="13" fill="#F5F2ED" opacity="0.65"/><circle cx="340" cy="510" r="18" fill="#C8E06A" opacity="0.86"/><circle cx="371" cy="707" r="18" fill="#F5F2ED" opacity="0.86"/><circle cx="172" cy="67" r="3" fill="#8B7EC8" opacity="0.49"/><circle cx="905" cy="121" r="16" fill="#F5F2ED" opacity="0.35"/><circle cx="366" cy="205" r="16" fill="#6B7F8C" opacity="0.31"/><circle cx="307" cy="319" r="12" fill="#E87A9A" opacity="0.30"/><circle cx="1123" cy="563" r="13" fill="#E87A9A" opacity="0.29"/><circle cx="570" cy="695" r="12" fill="#C4785A" opacity="0.45"/><circle cx="315" cy="256" r="16" fill="#6B7F8C" opacity="0.55"/><circle cx="1073" cy="326" r="9" fill="#C4785A" opacity="0.45"/><circle cx="360" cy="12" r="2" fill="#F5F2ED" opacity="0.53"/><circle cx="939" cy="671" r="3" fill="#C8E06A" opacity="0.42"/><circle cx="559" cy="482" r="8" fill="#8B7EC8" opacity="0.67"/><circle cx="645" cy="342" r="2" fill="#6B7F8C" opacity="0.45"/><circle cx="746" cy="412" r="14" fill="#F5F2ED" opacity="0.29"/><circle cx="451" cy="528" r="4" fill="#6B7F8C" opacity="0.35"/><circle cx="246" cy="149" r="12" fill="#C4785A" opacity="0.51"/><circle cx="916" cy="681" r="8" fill="#F5F2ED" opacity="0.72"/><circle cx="746" cy="525" r="8" fill="#6B7F8C" opacity="0.57"/><circle cx="1138" cy="325" r="11" fill="#F5F2ED" opacity="0.46"/><circle cx="523" cy="246" r="15" fill="#6B7F8C" opacity="0.57"/><circle cx="608" cy="769" r="3" fill="#6B7F8C" opacity="0.28"/><circle cx="701" cy="757" r="16" fill="#E87A9A" opacity="0.72"/><circle cx="550" cy="566" r="8" fill="#C4785A" opacity="0.79"/><circle cx="952" cy="633" r="3" fill="#C4785A" opacity="0.54"/><circle cx="925" cy="683" r="10" fill="#8B7EC8" opacity="0.92"/><circle cx="998" cy="765" r="3" fill="#C4785A" opacity="0.73"/><circle cx="544" cy="618" r="5" fill="#F5F2ED" opacity="0.31"/><circle cx="921" cy="347" r="18" fill="#F5F2ED" opacity="0.30"/><circle cx="961" cy="730" r="15" fill="#C4785A" opacity="0.44"/><circle cx="488" cy="365" r="8" fill="#F5F2ED" opacity="0.81"/><circle cx="196" cy="237" r="8" fill="#F5F2ED" opacity="0.36"/><circle cx="393" cy="459" r="6" fill="#C4785A" opacity="0.94"/><circle cx="1057" cy="732" r="18" fill="#6B7F8C" opacity="0.32"/><circle cx="1080" cy="12" r="12" fill="#8B7EC8" opacity="0.88"/><circle cx="1181" cy="675" r="17" fill="#6B7F8C" opacity="0.33"/><circle cx="83" cy="459" r="4" fill="#C8E06A" opacity="0.53"/><circle cx="274" cy="716" r="3" fill="#C4785A" opacity="0.45"/><circle cx="1086" cy="63" r="5" fill="#C8E06A" opacity="0.45"/><circle cx="339" cy="740" r="14" fill="#F5F2ED" opacity="0.64"/><circle cx="310" cy="725" r="12" fill="#F5F2ED" opacity="0.27"/><circle cx="624" cy="398" r="9" fill="#E87A9A" opacity="0.42"/><circle cx="835" cy="154" r="7" fill="#E87A9A" opacity="0.56"/><circle cx="396" cy="280" r="2" fill="#6B7F8C" opacity="0.48"/><circle cx="78" cy="229" r="11" fill="#8B7EC8" opacity="0.43"/><circle cx="768" cy="131" r="10" fill="#8B7EC8" opacity="0.83"/><circle cx="756" cy="793" r="16" fill="#8B7EC8" opacity="0.90"/><circle cx="540" cy="56" r="16" fill="#F5F2ED" opacity="0.46"/><circle cx="361" cy="677" r="2" fill="#C8E06A" opacity="0.59"/><circle cx="91" cy="393" r="3" fill="#C8E06A" opacity="0.29"/><circle cx="5" cy="389" r="6" fill="#E87A9A" opacity="0.94"/><circle cx="213" cy="751" r="7" fill="#E87A9A" opacity="0.73"/><circle cx="897" cy="276" r="13" fill="#F5F2ED" opacity="0.40"/><circle cx="582" cy="406" r="6" fill="#6B7F8C" opacity="0.61"/><circle cx="999" cy="304" r="9" fill="#E87A9A" opacity="0.86"/><circle cx="1076" cy="47" r="3" fill="#8B7EC8" opacity="0.33"/><circle cx="21" cy="770" r="17" fill="#C8E06A" opacity="0.57"/><circle cx="763" cy="638" r="11" fill="#6B7F8C" opacity="0.51"/><circle cx="982" cy="248" r="6" fill="#E87A9A" opacity="0.77"/><circle cx="795" cy="103" r="17" fill="#C4785A" opacity="0.95"/><circle cx="125" cy="693" r="16" fill="#C8E06A" opacity="0.82"/><circle cx="782" cy="168" r="4" fill="#8B7EC8" opacity="0.80"/><circle cx="1103" cy="522" r="15" fill="#F5F2ED" opacity="0.54"/><circle cx="354" cy="711" r="3" fill="#C8E06A" opacity="0.77"/><circle cx="1196" cy="105" r="2" fill="#6B7F8C" opacity="0.43"/><circle cx="324" cy="541" r="6" fill="#8B7EC8" opacity="0.76"/><circle cx="1083" cy="580" r="9" fill="#8B7EC8" opacity="0.64"/><circle cx="178" cy="197" r="6" fill="#C4785A" opacity="0.64"/><circle cx="975" cy="122" r="6" fill="#E87A9A" opacity="0.60"/><circle cx="624" cy="188" r="6" fill="#6B7F8C" opacity="0.36"/><circle cx="869" cy="492" r="3" fill="#6B7F8C" opacity="0.50"/><circle cx="152" cy="583" r="10" fill="#6B7F8C" opacity="0.72"/><circle cx="14" cy="329" r="3" fill="#6B7F8C" opacity="0.44"/><circle cx="326" cy="737" r="15" fill="#6B7F8C" opacity="0.70"/><circle cx="406" cy="328" r="6" fill="#8B7EC8" opacity="0.48"/><circle cx="787" cy="326" r="9" fill="#8B7EC8" opacity="0.46"/><circle cx="585" cy="528" r="15" fill="#6B7F8C" opacity="0.71"/>
  <text x="50%" y="52%" text-anchor="middle" fill="#F5F2ED" font-family="Arial Black, Helvetica, sans-serif" font-size="100" font-weight="800" opacity="0.9">NORTHLINE</text>
</svg>