<svg xmlns="http://www.w3.org/2000/svg" width="1200" height="1400" viewBox="0 0 1200 1400">
  <rect width="100%" height="100%" fill="#1a1a1a"/>
  <circle cx="981" cy="34" r="18" fill="#E87A9A" opacity="0.29"/><circle cx="530" cy="130" r="8" fill="#E87A9A" opacity="0.50"/><circle cx="923" cy="1338" r="11" fill="#F5F2ED" opacity="0.41"/><circle cx="958" cy="569" r="17" fill="#F5F2ED" opacity="0.35"/><circle cx="562" cy="747" r="17" fill="#C8E06A" opacity="0.30"/><circle cx="714" cy="677" r="7" fill="#6B7F8C" opacity="0.55"/><circle cx="76" cy="190" r="12" fill="#C4785A" opacity="0.76"/><circle cx="764" cy="905" r="11" fill="#8B7EC8" opacity="0.43"/><circle cx="915" cy="869" r="9" fill="#6B7F8C" opacity="0.87"/><circle cx="1005" cy="417" r="6" fill="#6B7F8C" opacity="0.38"/><circle cx="1157" cy="1134" r="8" fill="#6B7F8C" opacity="0.47"/><circle cx="270" cy="1209" r="13" fill="#8B7EC8" opacity="0.95"/><circle cx="1097" cy="787" r="8" fill="#F5F2ED" opacity="0.54"/><circle cx="1072" cy="753" r="14" fill="#F5F2ED" opacity="0.52"/><circle cx="284" cy="331" r="3" fill="#F5F2ED" opacity="0.49"/><circle cx="1078" cy="135" r="5" fill="#8B7EC8" opacity="0.75"/><circle cx="980" cy="1013" r="18" fill="#F5F2ED" opacity="0.40"/><circle cx="25" cy="442" r="5" fill="#F5F2ED" opacity="0.54"/><circle cx="762" cy="462" r="11" fill="#6B7F8C" opacity="0.80"/><circle cx="44" cy="139" r="11" fill="#F5F2ED" opacity="0.85"/><circle cx="568" cy="208" r="12" fill="#E87A9A" opacity="0.25"/><circle cx="1055" cy="1099" r="8" fill="#C4785A" opacity="0.46"/><circle cx="85" cy="595" r="2" fill="#E87A9A" opacity="0.40"/><circle cx="343" cy="68" r="12" fill="#C4785A" opacity="0.62"/><circle cx="1080" cy="688" r="12" fill="#C4785A" opacity="0.78"/><circle cx="69" cy="547" r="3" fill="#C4785A" opacity="0.38"/><circle cx="1181" cy="1136" r="13" fill="#8B7EC8" opacity="0.62"/><circle cx="101" cy="707" r="12" fill="#6B7F8C" opacity="0.80"/><circle cx="945" cy="483" r="12" fill="#8B7EC8" opacity="0.50"/><circle cx="15" cy="850" r="12" fill="#E87A9A" opacity="0.29"/><circle cx="1043" cy="593" r="6" fill="#8B7EC8" opacity="0.58"/><circle cx="834" cy="522" r="5" fill="#C8E06A" opacity="0.78"/><circle cx="411" cy="690" r="10" fill="#8B7EC8" opacity="0.28"/><circle cx="329" cy="748" r="6" fill="#C4785A" opacity="0.62"/><circle cx="937" cy="910" r="16" fill="#8B7EC8" opacity="0.38"/><circle cx="299" cy="921" r="5" fill="#C4785A" opacity="0.69"/><circle cx="178" cy="1200" r="16" fill="#E87A9A" opacity="0.71"/><circle cx="180" cy="1214" r="13" fill="#E87A9A" opacity="0.39"/><circle cx="440" cy="244" r="9" fill="#C4785A" opacity="0.85"/><circle cx="523" cy="1261" r="15" fill="#C4785A" opacity="0.29"/><circle cx="573" cy="1015" r="3" fill="#C4785A" opacity="0.76"/><circle cx="140" cy="183" r="14" fill="#C8E06A" opacity="0.89"/><circle cx="704" cy="937" r="7" fill="#E87A9A" opacity="0.66"/><circle cx="602" cy="454" r="18" fill="#6B7F8C" opacity="0.61"/><circle cx="1157" cy="13" r="6" fill="#F5F2ED" opacity="0.37"/><circle cx="728" cy="964" r="3" fill="#C4785A" opacity="0.41"/><circle cx="1185" cy="677" r="10" fill="#C8E06A" opacity="0.53"/><circle cx="46" cy="109" r="2" fill="#C4785A" opacity="0.85"/><circle cx="38" cy="681" r="13" fill="#E87A9A" opacity="0.66"/><circle cx="171" cy="1245" r="17" fill="#E87A9A" opacity="0.57"/><circle cx="326" cy="959" r="6" fill="#6B7F8C" opacity="0.55"/><circle cx="1003" cy="734" r="13" fill="#8B7EC8" opacity="0.59"/><circle cx="246" cy="208" r="9" fill="#8B7EC8" opacity="0.60"/><circle cx="866" cy="452" r="11" fill="#6B7F8C" opacity="0.67"/><circle cx="71" cy="1392" r="4" fill="#8B7EC8" opacity="0.67"/><circle cx="843" cy="706" r="16" fill="#6B7F8C" opacity="0.32"/><circle cx="716" cy="1081" r="8" fill="#6B7F8C" opacity="0.53"/><circle cx="934" cy="304" r="4" fill="#E87A9A" opacity="0.34"/><circle cx="492" cy="1147" r="17" fill="#8B7EC8" opacity="0.82"/><circle cx="629" cy="421" r="2" fill="#8B7EC8" opacity="0.60"/><circle cx="250" cy="1257" r="6" fill="#E87A9A" opacity="0.48"/><circle cx="137" cy="70" r="9" fill="#6B7F8C" opacity="0.37"/><circle cx="624" cy="1329" r="18" fill="#C8E06A" opacity="0.65"/><circle cx="343" cy="199" r="9" fill="#E87A9A" opacity="0.90"/><circle cx="466" cy="1041" r="13" fill="#6B7F8C" opacity="0.39"/><circle cx="318" cy="826" r="16" fill="#6B7F8C" opacity="0.72"/><circle cx="604" cy="544" r="18" fill="#6B7F8C" opacity="0.50"/><circle cx="782" cy="1067" r="18" fill="#C4785A" opacity="0.56"/><circle cx="614" cy="70" r="9" fill="#F5F2ED" opacity="0.50"/><circle cx="428" cy="768" r="10" fill="#E87A9A" opacity="0.67"/><circle cx="557" cy="1289" r="9" fill="#F5F2ED" opacity="0.63"/><circle cx="1006" cy="720" r="16" fill="#E87A9A" opacity="0.45"/><circle cx="178" cy="460" r="15" fill="#C4785A" opacity="0.61"/><circle cx="325" cy="799" r="9" fill="#F5F2ED" opacity="0.73"/><circle cx="27" cy="1164" r="9" fill="#C4785A" opacity="0.87"/><circle cx="765" cy="211" r="17" fill="#8B7EC8" opacity="0.38"/><circle cx="1166" cy="839" r="18" fill="#6B7F8C" opacity="0.59"/><circle cx="111" cy="534" r="13" fill="#F5F2ED" opacity="0.40"/><circle cx="330" cy="132" r="9" fill="#C8E06A" opacity="0.44"/><circle cx="669" cy="855" r="17" fill="#E87A9A" opacity="0.73"/><circle cx="130" cy="126" r="17" fill="#8B7EC8" opacity="0.62"/><circle cx="1114" cy="509" r="5" fill="#C4785A" opacity="0.65"/><circle cx="506" cy="842" r="7" fill="#C4785A" opacity="0.72"/><circle cx="609" cy="407" r="17" fill="#8B7EC8" opacity="0.89"/><circle cx="908" cy="176" r="17" fill="#C8E06A" opacity="0.28"/><circle cx="70" cy="673" r="10" fill="#C4785A" opacity="0.76"/><circle cx="338" cy="264" r="14" fill="#6B7F8C" opacity="0.64"/><circle cx="264" cy="300" r="7" fill="#F5F2ED" opacity="0.89"/><circle cx="167" cy="996" r="15" fill="#F5F2ED" opacity="0.42"/><circle cx="668" cy="851" r="8" fill="#6B7F8C" opacity="0.81"/>
  <text x="50%" y="52%" text-anchor="middle" fill="#F5F2ED" font-family="Arial Black, Helvetica, sans-serif" font-size="100" font-weight="800" opacity="0.9">SIGNAL</text>
</svg>