<svg xmlns="http://www.w3.org/2000/svg" width="1200" height="800" viewBox="0 0 1200 800">
  <rect width="100%" height="100%" fill="#141414"/>
  <polygon points="0,0 420.0,0 0,440.00000000000006" fill="#F5821F" opacity="0.35"/>
  <circle cx="40" cy="202" r="9" fill="#FDB827" opacity="0.45"/><circle cx="256" cy="17" r="7" fill="#6B7F8C" opacity="0.87"/><circle cx="241" cy="78" r="22" fill="#F5F2ED" opacity="0.48"/><circle cx="124" cy="207" r="20" fill="#8B7EC8" opacity="0.49"/><circle cx="660" cy="636" r="7" fill="#8B7EC8" opacity="0.51"/><circle cx="955" cy="456" r="19" fill="#E87A9A" opacity="0.39"/><circle cx="368" cy="582" r="3" fill="#6B7F8C" opacity="0.23"/><circle cx="253" cy="167" r="10" fill="#FDB827" opacity="0.46"/><circle cx="147" cy="358" r="21" fill="#E87A9A" opacity="0.81"/><circle cx="193" cy="41" r="16" fill="#1E9BD7" opacity="0.67"/><circle cx="449" cy="152" r="7" fill="#C8E06A" opacity="0.23"/><circle cx="775" cy="32" r="6" fill="#1E9BD7" opacity="0.32"/><circle cx="905" cy="86" r="3" fill="#C8E06A" opacity="0.25"/><circle cx="264" cy="715" r="9" fill="#6B7F8C" opacity="0.25"/><circle cx="1149" cy="734" r="15" fill="#1E9BD7" opacity="0.60"/><circle cx="883" cy="317" r="2" fill="#C4785A" opacity="0.84"/><circle cx="995" cy="531" r="22" fill="#C4785A" opacity="0.63"/><circle cx="57" cy="259" r="2" fill="#E87A9A" opacity="0.78"/><circle cx="926" cy="127" r="4" fill="#E87A9A" opacity="0.63"/><circle cx="179" cy="626" r="22" fill="#8B7EC8" opacity="0.28"/><circle cx="342" cy="651" r="4" fill="#C4785A" opacity="0.51"/><circle cx="432" cy="166" r="14" fill="#F5F2ED" opacity="0.61"/><circle cx="489" cy="87" r="7" fill="#E87A9A" opacity="0.84"/><circle cx="510" cy="605" r="4" fill="#E87A9A" opacity="0.67"/><circle cx="791" cy="518" r="9" fill="#E87A9A" opacity="0.56"/><circle cx="999" cy="8" r="4" fill="#8B7EC8" opacity="0.62"/><circle cx="809" cy="231" r="19" fill="#6B7F8C" opacity="0.91"/><circle cx="1012" cy="57" r="14" fill="#E87A9A" opacity="0.89"/><circle cx="904" cy="282" r="4" fill="#C8E06A" opacity="0.58"/><circle cx="81" cy="794" r="20" fill="#C8E06A" opacity="0.54"/><circle cx="22" cy="179" r="19" fill="#8B7EC8" opacity="0.52"/><circle cx="60" cy="268" r="13" fill="#1E9BD7" opacity="0.23"/><circle cx="364" cy="168" r="7" fill="#1E9BD7" opacity="0.80"/><circle cx="629" cy="746" r="3" fill="#8B7EC8" opacity="0.21"/><circle cx="896" cy="341" r="5" fill="#E87A9A" opacity="0.80"/><circle cx="1002" cy="111" r="13" fill="#E87A9A" opacity="0.81"/><circle cx="139" cy="280" r="5" fill="#F5F2ED" opacity="0.80"/><circle cx="966" cy="451" r="15" fill="#E87A9A" opacity="0.66"/><circle cx="478" cy="154" r="20" fill="#F5F2ED" opacity="0.32"/><circle cx="1196" cy="329" r="6" fill="#FDB827" opacity="0.43"/><circle cx="450" cy="212" r="9" fill="#6B7F8C" opacity="0.82"/><circle cx="742" cy="588" r="6" fill="#C8E06A" opacity="0.38"/><circle cx="66" cy="338" r="6" fill="#E87A9A" opacity="0.74"/><circle cx="1" cy="291" r="21" fill="#1E9BD7" opacity="0.34"/><circle cx="142" cy="568" r="11" fill="#C8E06A" opacity="0.20"/><circle cx="604" cy="782" r="19" fill="#C4785A" opacity="0.31"/><circle cx="253" cy="623" r="19" fill="#E87A9A" opacity="0.27"/><circle cx="759" cy="759" r="9" fill="#C8E06A" opacity="0.59"/><circle cx="240" cy="529" r="12" fill="#1E9BD7" opacity="0.40"/><circle cx="659" cy="481" r="3" fill="#1E9BD7" opacity="0.78"/><circle cx="96" cy="407" r="12" fill="#C8E06A" opacity="0.49"/><circle cx="675" cy="263" r="19" fill="#C8E06A" opacity="0.67"/><circle cx="624" cy="15" r="17" fill="#C4785A" opacity="0.62"/><circle cx="398" cy="281" r="20" fill="#6B7F8C" opacity="0.79"/><circle cx="76" cy="283" r="5" fill="#1E9BD7" opacity="0.26"/><circle cx="160" cy="338" r="21" fill="#FDB827" opacity="0.64"/><circle cx="416" cy="334" r="13" fill="#C4785A" opacity="0.86"/><circle cx="736" cy="363" r="5" fill="#E87A9A" opacity="0.39"/><circle cx="11" cy="85" r="5" fill="#1E9BD7" opacity="0.37"/><circle cx="814" cy="518" r="18" fill="#C4785A" opacity="0.27"/><circle cx="364" cy="638" r="20" fill="#6B7F8C" opacity="0.35"/><circle cx="746" cy="713" r="5" fill="#E87A9A" opacity="0.37"/><circle cx="54" cy="221" r="3" fill="#C8E06A" opacity="0.50"/><circle cx="1127" cy="321" r="22" fill="#E87A9A" opacity="0.80"/><circle cx="242" cy="328" r="9" fill="#6B7F8C" opacity="0.34"/><circle cx="367" cy="505" r="17" fill="#6B7F8C" opacity="0.23"/><circle cx="1120" cy="257" r="18" fill="#C8E06A" opacity="0.82"/><circle cx="1133" cy="780" r="6" fill="#C4785A" opacity="0.63"/><circle cx="462" cy="739" r="18" fill="#C8E06A" opacity="0.90"/><circle cx="406" cy="300" r="13" fill="#E87A9A" opacity="0.31"/><circle cx="199" cy="591" r="6" fill="#E87A9A" opacity="0.75"/><circle cx="864" cy="548" r="17" fill="#FDB827" opacity="0.84"/><circle cx="1065" cy="634" r="8" fill="#1E9BD7" opacity="0.25"/><circle cx="400" cy="86" r="11" fill="#1E9BD7" opacity="0.74"/><circle cx="632" cy="411" r="9" fill="#C8E06A" opacity="0.82"/><circle cx="1177" cy="509" r="11" fill="#F5F2ED" opacity="0.28"/><circle cx="1130" cy="514" r="6" fill="#FDB827" opacity="0.45"/><circle cx="886" cy="669" r="12" fill="#C4785A" opacity="0.26"/><circle cx="627" cy="368" r="13" fill="#6B7F8C" opacity="0.65"/><circle cx="1118" cy="431" r="17" fill="#1E9BD7" opacity="0.62"/><circle cx="566" cy="360" r="16" fill="#8B7EC8" opacity="0.23"/><circle cx="253" cy="141" r="2" fill="#F5F2ED" opacity="0.60"/><circle cx="1107" cy="621" r="4" fill="#FDB827" opacity="0.48"/><circle cx="705" cy="15" r="7" fill="#E87A9A" opacity="0.26"/><circle cx="487" cy="497" r="21" fill="#8B7EC8" opacity="0.56"/><circle cx="1146" cy="37" r="2" fill="#E87A9A" opacity="0.78"/><circle cx="619" cy="741" r="21" fill="#6B7F8C" opacity="0.39"/><circle cx="924" cy="788" r="20" fill="#6B7F8C" opacity="0.78"/><circle cx="120" cy="404" r="20" fill="#6B7F8C" opacity="0.61"/><circle cx="738" cy="208" r="6" fill="#6B7F8C" opacity="0.92"/><circle cx="980" cy="469" r="15" fill="#C4785A" opacity="0.79"/><circle cx="544" cy="172" r="21" fill="#FDB827" opacity="0.66"/><circle cx="542" cy="68" r="3" fill="#1E9BD7" opacity="0.70"/><circle cx="153" cy="578" r="9" fill="#F5F2ED" opacity="0.40"/><circle cx="998" cy="11" r="22" fill="#1E9BD7" opacity="0.87"/><circle cx="699" cy="158" r="16" fill="#C8E06A" opacity="0.76"/><circle cx="783" cy="511" r="13" fill="#1E9BD7" opacity="0.70"/><circle cx="1090" cy="125" r="10" fill="#1E9BD7" opacity="0.47"/><circle cx="175" cy="734" r="9" fill="#E87A9A" opacity="0.27"/><circle cx="459" cy="493" r="21" fill="#E87A9A" opacity="0.62"/><circle cx="207" cy="578" r="14" fill="#F5F2ED" opacity="0.45"/><circle cx="543" cy="19" r="7" fill="#F5F2ED" opacity="0.53"/><circle cx="298" cy="181" r="14" fill="#C8E06A" opacity="0.93"/><circle cx="278" cy="151" r="14" fill="#C4785A" opacity="0.56"/><circle cx="705" cy="150" r="10" fill="#C8E06A" opacity="0.50"/><circle cx="1122" cy="674" r="17" fill="#8B7EC8" opacity="0.61"/><circle cx="277" cy="660" r="13" fill="#C4785A" opacity="0.79"/><circle cx="451" cy="492" r="16" fill="#C8E06A" opacity="0.62"/><circle cx="121" cy="501" r="6" fill="#C8E06A" opacity="0.89"/><circle cx="650" cy="271" r="12" fill="#1E9BD7" opacity="0.65"/>
  <text x="50%" y="48%" text-anchor="middle" fill="#E8467C" font-family="Arial Black, Helvetica, sans-serif" font-size="85" font-weight="800">ATELIER</text>
  <text x="50%" y="58%" text-anchor="middle" fill="#F5F2ED" font-family="Helvetica, Arial, sans-serif" font-size="30" opacity="0.7">SPLIT TAKE MEDIA</text>
</svg>