<svg xmlns="http://www.w3.org/2000/svg" width="1200" height="1400" viewBox="0 0 1200 1400">
  <rect width="100%" height="100%" fill="#1a1a1a"/>
  <circle cx="40" cy="405" r="9" fill="#E87A9A" opacity="0.48"/><circle cx="256" cy="34" r="7" fill="#C4785A" opacity="0.88"/><circle cx="241" cy="156" r="12" fill="#C8E06A" opacity="0.70"/><circle cx="415" cy="1190" r="10" fill="#E87A9A" opacity="0.94"/><circle cx="351" cy="1286" r="11" fill="#E87A9A" opacity="0.28"/><circle cx="912" cy="1098" r="9" fill="#C8E06A" opacity="0.92"/><circle cx="1164" cy="80" r="5" fill="#C4785A" opacity="0.67"/><circle cx="253" cy="334" r="10" fill="#8B7EC8" opacity="0.54"/><circle cx="147" cy="716" r="8" fill="#C4785A" opacity="0.28"/><circle cx="944" cy="1121" r="17" fill="#F5F2ED" opacity="0.34"/><circle cx="449" cy="304" r="7" fill="#8B7EC8" opacity="0.38"/><circle cx="1101" cy="775" r="3" fill="#6B7F8C" opacity="0.57"/><circle cx="434" cy="1279" r="16" fill="#C4785A" opacity="0.29"/><circle cx="147" cy="20" r="6" fill="#F5F2ED" opacity="0.42"/><circle cx="148" cy="966" r="15" fill="#F5F2ED" opacity="0.83"/><circle cx="979" cy="1094" r="8" fill="#F5F2ED" opacity="0.55"/><circle cx="53" cy="51" r="17" fill="#8B7EC8" opacity="0.69"/><circle cx="38" cy="1185" r="2" fill="#C8E06A" opacity="0.89"/><circle cx="407" cy="992" r="16" fill="#C4785A" opacity="0.32"/><circle cx="1184" cy="499" r="4" fill="#8B7EC8" opacity="0.71"/><circle cx="209" cy="1156" r="7" fill="#F5F2ED" opacity="0.30"/><circle cx="23" cy="855" r="8" fill="#6B7F8C" opacity="0.52"/><circle cx="1108" cy="364" r="9" fill="#C4785A" opacity="0.38"/><circle cx="471" cy="510" r="4" fill="#F5F2ED" opacity="0.39"/><circle cx="111" cy="791" r="18" fill="#F5F2ED" opacity="0.41"/><circle cx="1087" cy="486" r="17" fill="#6B7F8C" opacity="0.75"/><circle cx="16" cy="146" r="11" fill="#8B7EC8" opacity="0.31"/><circle cx="462" cy="1126" r="4" fill="#C4785A" opacity="0.60"/><circle cx="807" cy="444" r="14" fill="#8B7EC8" opacity="0.79"/><circle cx="904" cy="564" r="4" fill="#8B7EC8" opacity="0.34"/><circle cx="728" cy="81" r="7" fill="#E87A9A" opacity="0.94"/><circle cx="359" cy="1148" r="10" fill="#E87A9A" opacity="0.87"/><circle cx="536" cy="714" r="18" fill="#E87A9A" opacity="0.28"/><circle cx="364" cy="336" r="7" fill="#E87A9A" opacity="0.81"/><circle cx="629" cy="124" r="11" fill="#C4785A" opacity="0.29"/><circle cx="683" cy="243" r="9" fill="#8B7EC8" opacity="0.59"/><circle cx="754" cy="493" r="4" fill="#C8E06A" opacity="0.32"/><circle cx="661" cy="640" r="17" fill="#E87A9A" opacity="0.87"/><circle cx="1024" cy="1374" r="8" fill="#8B7EC8" opacity="0.76"/><circle cx="309" cy="1162" r="13" fill="#6B7F8C" opacity="0.32"/><circle cx="659" cy="292" r="15" fill="#C8E06A" opacity="0.66"/><circle cx="450" cy="425" r="9" fill="#C4785A" opacity="0.83"/><circle cx="742" cy="1177" r="6" fill="#6B7F8C" opacity="0.42"/><circle cx="66" cy="677" r="6" fill="#6B7F8C" opacity="0.75"/><circle cx="1" cy="583" r="16" fill="#6B7F8C" opacity="0.40"/><circle cx="1137" cy="587" r="7" fill="#C4785A" opacity="0.90"/><circle cx="604" cy="1116" r="3" fill="#6B7F8C" opacity="0.54"/><circle cx="1112" cy="501" r="4" fill="#E87A9A" opacity="0.51"/><circle cx="501" cy="1346" r="7" fill="#8B7EC8" opacity="0.39"/><circle cx="240" cy="1059" r="12" fill="#E87A9A" opacity="0.43"/><circle cx="659" cy="963" r="3" fill="#F5F2ED" opacity="0.57"/><circle cx="552" cy="1264" r="3" fill="#E87A9A" opacity="0.47"/><circle cx="1029" cy="1379" r="7" fill="#E87A9A" opacity="0.32"/><circle cx="675" cy="527" r="6" fill="#8B7EC8" opacity="0.27"/><circle cx="30" cy="1004" r="3" fill="#8B7EC8" opacity="0.61"/><circle cx="562" cy="1178" r="5" fill="#C4785A" opacity="0.44"/><circle cx="1018" cy="166" r="4" fill="#C8E06A" opacity="0.73"/><circle cx="844" cy="1200" r="6" fill="#6B7F8C" opacity="0.48"/><circle cx="1174" cy="58" r="13" fill="#C8E06A" opacity="0.33"/><circle cx="531" cy="11" r="4" fill="#C4785A" opacity="0.57"/><circle cx="184" cy="814" r="18" fill="#8B7EC8" opacity="0.28"/><circle cx="581" cy="364" r="4" fill="#6B7F8C" opacity="0.60"/><circle cx="746" cy="248" r="8" fill="#6B7F8C" opacity="0.68"/><circle cx="442" cy="91" r="7" fill="#E87A9A" opacity="0.66"/><circle cx="1127" cy="643" r="9" fill="#8B7EC8" opacity="0.73"/><circle cx="242" cy="657" r="9" fill="#C4785A" opacity="0.38"/><circle cx="367" cy="1011" r="17" fill="#C4785A" opacity="0.28"/><circle cx="1120" cy="515" r="18" fill="#8B7EC8" opacity="0.38"/><circle cx="967" cy="1133" r="6" fill="#F5F2ED" opacity="0.84"/><circle cx="84" cy="1182" r="14" fill="#6B7F8C" opacity="0.76"/><circle cx="311" cy="15" r="8" fill="#C8E06A" opacity="0.49"/><circle cx="296" cy="199" r="6" fill="#8B7EC8" opacity="0.41"/><circle cx="439" cy="864" r="17" fill="#F5F2ED" opacity="0.67"/><circle cx="149" cy="1340" r="18" fill="#8B7EC8" opacity="0.39"/><circle cx="1171" cy="911" r="4" fill="#F5F2ED" opacity="0.39"/><circle cx="630" cy="988" r="3" fill="#C8E06A" opacity="0.53"/><circle cx="381" cy="555" r="17" fill="#C8E06A" opacity="0.75"/><circle cx="734" cy="205" r="2" fill="#8B7EC8" opacity="0.60"/><circle cx="262" cy="810" r="12" fill="#C4785A" opacity="0.55"/><circle cx="685" cy="81" r="4" fill="#C4785A" opacity="0.73"/><circle cx="736" cy="746" r="5" fill="#8B7EC8" opacity="0.31"/><circle cx="862" cy="966" r="17" fill="#8B7EC8" opacity="0.81"/><circle cx="720" cy="946" r="11" fill="#C4785A" opacity="0.35"/><circle cx="253" cy="282" r="2" fill="#C8E06A" opacity="0.62"/><circle cx="1107" cy="1242" r="4" fill="#E87A9A" opacity="0.51"/><circle cx="705" cy="31" r="7" fill="#6B7F8C" opacity="0.31"/><circle cx="487" cy="994" r="10" fill="#E87A9A" opacity="0.84"/><circle cx="74" cy="23" r="8" fill="#C8E06A" opacity="0.94"/><circle cx="131" cy="527" r="16" fill="#8B7EC8" opacity="0.90"/><circle cx="128" cy="456" r="3" fill="#E87A9A" opacity="0.65"/>
  <text x="50%" y="52%" text-anchor="middle" fill="#F5F2ED" font-family="Arial Black, Helvetica, sans-serif" font-size="100" font-weight="800" opacity="0.9">ATELIER</text>
</svg>