<svg xmlns="http://www.w3.org/2000/svg" width="1200" height="800" viewBox="0 0 1200 800">
  <rect width="100%" height="100%" fill="#141414"/>
  <polygon points="0,0 420.0,0 0,440.00000000000006" fill="#F5821F" opacity="0.35"/>
  <circle cx="1190" cy="199" r="19" fill="#F5F2ED" opacity="0.55"/><circle cx="1031" cy="219" r="21" fill="#E87A9A" opacity="0.89"/><circle cx="994" cy="709" r="8" fill="#F5F2ED" opacity="0.93"/><circle cx="144" cy="261" r="8" fill="#C8E06A" opacity="0.27"/><circle cx="1100" cy="375" r="8" fill="#1E9BD7" opacity="0.79"/><circle cx="489" cy="652" r="14" fill="#FDB827" opacity="0.36"/><circle cx="880" cy="478" r="11" fill="#E87A9A" opacity="0.28"/><circle cx="672" cy="680" r="10" fill="#FDB827" opacity="0.79"/><circle cx="469" cy="433" r="4" fill="#FDB827" opacity="0.76"/><circle cx="856" cy="6" r="16" fill="#E87A9A" opacity="0.60"/><circle cx="707" cy="22" r="13" fill="#F5F2ED" opacity="0.21"/><circle cx="1155" cy="157" r="3" fill="#FDB827" opacity="0.34"/><circle cx="134" cy="781" r="6" fill="#FDB827" opacity="0.71"/><circle cx="742" cy="668" r="20" fill="#1E9BD7" opacity="0.32"/><circle cx="1045" cy="318" r="7" fill="#C4785A" opacity="0.92"/><circle cx="135" cy="32" r="20" fill="#F5F2ED" opacity="0.60"/><circle cx="905" cy="121" r="21" fill="#1E9BD7" opacity="0.79"/><circle cx="287" cy="702" r="7" fill="#E87A9A" opacity="0.75"/><circle cx="1120" cy="457" r="6" fill="#6B7F8C" opacity="0.92"/><circle cx="638" cy="345" r="14" fill="#6B7F8C" opacity="0.24"/><circle cx="1127" cy="705" r="13" fill="#1E9BD7" opacity="0.24"/><circle cx="570" cy="695" r="12" fill="#6B7F8C" opacity="0.41"/><circle cx="315" cy="256" r="16" fill="#E87A9A" opacity="0.52"/><circle cx="1073" cy="326" r="9" fill="#6B7F8C" opacity="0.41"/><circle cx="360" cy="12" r="2" fill="#FDB827" opacity="0.84"/><circle cx="939" cy="671" r="20" fill="#C4785A" opacity="0.80"/><circle cx="488" cy="279" r="17" fill="#E87A9A" opacity="0.61"/><circle cx="1096" cy="322" r="12" fill="#C4785A" opacity="0.90"/><circle cx="590" cy="353" r="13" fill="#FDB827" opacity="0.50"/><circle cx="111" cy="762" r="9" fill="#6B7F8C" opacity="0.36"/><circle cx="246" cy="149" r="12" fill="#6B7F8C" opacity="0.48"/><circle cx="916" cy="681" r="8" fill="#F5F2ED" opacity="0.58"/><circle cx="1126" cy="213" r="6" fill="#1E9BD7" opacity="0.61"/><circle cx="651" cy="307" r="11" fill="#8B7EC8" opacity="0.38"/><circle cx="891" cy="208" r="16" fill="#8B7EC8" opacity="0.76"/><circle cx="503" cy="50" r="20" fill="#F5F2ED" opacity="0.75"/><circle cx="898" cy="449" r="3" fill="#8B7EC8" opacity="0.61"/><circle cx="418" cy="34" r="16" fill="#C4785A" opacity="0.21"/><circle cx="925" cy="683" r="10" fill="#C8E06A" opacity="0.57"/><circle cx="126" cy="36" r="10" fill="#6B7F8C" opacity="0.72"/><circle cx="921" cy="347" r="18" fill="#6B7F8C" opacity="0.31"/><circle cx="854" cy="111" r="10" fill="#C4785A" opacity="0.38"/><circle cx="443" cy="659" r="19" fill="#6B7F8C" opacity="0.94"/><circle cx="393" cy="666" r="7" fill="#C8E06A" opacity="0.75"/><circle cx="393" cy="459" r="6" fill="#C4785A" opacity="0.94"/><circle cx="1057" cy="732" r="18" fill="#E87A9A" opacity="0.28"/><circle cx="1080" cy="12" r="12" fill="#C8E06A" opacity="0.63"/><circle cx="985" cy="131" r="5" fill="#6B7F8C" opacity="0.94"/><circle cx="918" cy="626" r="20" fill="#6B7F8C" opacity="0.95"/><circle cx="825" cy="771" r="6" fill="#C4785A" opacity="0.29"/><circle cx="1086" cy="63" r="5" fill="#8B7EC8" opacity="0.42"/><circle cx="339" cy="740" r="14" fill="#FDB827" opacity="0.31"/><circle cx="681" cy="713" r="3" fill="#E87A9A" opacity="0.43"/><circle cx="494" cy="480" r="9" fill="#E87A9A" opacity="0.51"/><circle cx="336" cy="507" r="16" fill="#1E9BD7" opacity="0.89"/><circle cx="560" cy="775" r="2" fill="#E87A9A" opacity="0.45"/><circle cx="78" cy="229" r="11" fill="#8B7EC8" opacity="0.23"/><circle cx="768" cy="131" r="10" fill="#F5F2ED" opacity="0.78"/><circle cx="938" cy="631" r="10" fill="#C4785A" opacity="0.54"/><circle cx="618" cy="93" r="7" fill="#C4785A" opacity="0.48"/><circle cx="91" cy="393" r="3" fill="#F5F2ED" opacity="0.24"/><circle cx="5" cy="389" r="6" fill="#1E9BD7" opacity="0.94"/><circle cx="213" cy="751" r="7" fill="#FDB827" opacity="0.72"/><circle cx="897" cy="276" r="13" fill="#E87A9A" opacity="0.71"/><circle cx="582" cy="406" r="6" fill="#C8E06A" opacity="0.59"/><circle cx="999" cy="304" r="9" fill="#FDB827" opacity="0.86"/><circle cx="1076" cy="47" r="3" fill="#6B7F8C" opacity="0.73"/><circle cx="21" cy="770" r="17" fill="#8B7EC8" opacity="0.54"/><circle cx="763" cy="638" r="11" fill="#C8E06A" opacity="0.47"/><circle cx="982" cy="248" r="6" fill="#1E9BD7" opacity="0.76"/><circle cx="795" cy="103" r="21" fill="#1E9BD7" opacity="0.27"/><circle cx="1108" cy="62" r="16" fill="#8B7EC8" opacity="0.81"/><circle cx="782" cy="168" r="4" fill="#E87A9A" opacity="0.85"/><circle cx="1103" cy="522" r="15" fill="#FDB827" opacity="0.77"/><circle cx="111" cy="383" r="20" fill="#6B7F8C" opacity="0.21"/><circle cx="522" cy="733" r="7" fill="#C8E06A" opacity="0.62"/><circle cx="588" cy="541" r="20" fill="#E87A9A" opacity="0.61"/><circle cx="178" cy="197" r="6" fill="#C4785A" opacity="0.62"/><circle cx="975" cy="122" r="21" fill="#C8E06A" opacity="0.56"/><circle cx="624" cy="188" r="6" fill="#C8E06A" opacity="0.32"/><circle cx="869" cy="492" r="3" fill="#C8E06A" opacity="0.47"/><circle cx="152" cy="583" r="10" fill="#C8E06A" opacity="0.70"/><circle cx="14" cy="329" r="3" fill="#C8E06A" opacity="0.40"/><circle cx="326" cy="737" r="15" fill="#E87A9A" opacity="0.68"/><circle cx="406" cy="328" r="6" fill="#F5F2ED" opacity="0.46"/><circle cx="787" cy="326" r="9" fill="#8B7EC8" opacity="0.42"/><circle cx="585" cy="528" r="15" fill="#C8E06A" opacity="0.70"/><circle cx="298" cy="730" r="2" fill="#FDB827" opacity="0.28"/><circle cx="892" cy="798" r="7" fill="#8B7EC8" opacity="0.36"/><circle cx="1010" cy="591" r="8" fill="#C8E06A" opacity="0.28"/><circle cx="849" cy="697" r="14" fill="#C4785A" opacity="0.43"/><circle cx="262" cy="513" r="21" fill="#FDB827" opacity="0.25"/><circle cx="725" cy="629" r="4" fill="#C8E06A" opacity="0.35"/><circle cx="1138" cy="688" r="11" fill="#C4785A" opacity="0.33"/><circle cx="109" cy="395" r="13" fill="#E87A9A" opacity="0.80"/><circle cx="1082" cy="495" r="6" fill="#E87A9A" opacity="0.81"/><circle cx="353" cy="12" r="17" fill="#1E9BD7" opacity="0.77"/><circle cx="483" cy="316" r="16" fill="#F5F2ED" opacity="0.25"/><circle cx="897" cy="363" r="3" fill="#F5F2ED" opacity="0.57"/><circle cx="148" cy="374" r="13" fill="#F5F2ED" opacity="0.93"/><circle cx="119" cy="83" r="16" fill="#FDB827" opacity="0.42"/><circle cx="562" cy="222" r="7" fill="#E87A9A" opacity="0.88"/><circle cx="276" cy="528" r="18" fill="#8B7EC8" opacity="0.40"/><circle cx="1190" cy="105" r="6" fill="#F5F2ED" opacity="0.72"/><circle cx="57" cy="187" r="21" fill="#FDB827" opacity="0.70"/><circle cx="578" cy="382" r="20" fill="#F5F2ED" opacity="0.76"/><circle cx="851" cy="687" r="18" fill="#E87A9A" opacity="0.53"/><circle cx="125" cy="24" r="11" fill="#F5F2ED" opacity="0.95"/><circle cx="400" cy="240" r="12" fill="#C8E06A" opacity="0.26"/><circle cx="633" cy="83" r="11" fill="#8B7EC8" opacity="0.31"/>
  <text x="50%" y="48%" text-anchor="middle" fill="#F5821F" font-family="Arial Black, Helvetica, sans-serif" font-size="85" font-weight="800">NORTHLINE</text>
  <text x="50%" y="58%" text-anchor="middle" fill="#F5F2ED" font-family="Helvetica, Arial, sans-serif" font-size="30" opacity="0.7">SPLIT TAKE MEDIA</text>
</svg>